<svg id="svg" version="1.1" xmlns="http://www.w3.org/2000/svg" xmlns:xlink="http://www.w3.org/1999/xlink" width="400" height="225.33333333333334" viewBox="0, 0, 400,225.33333333333334"><g id="svgg"><path id="path0" d="M0.000 112.676 L 0.000 225.352 200.000 225.352 L 400.000 225.352 400.000 112.676 L 400.000 0.000 200.000 0.000 L 0.000 0.000 0.000 112.676 M148.507 68.313 C 150.224 68.559,152.951 69.325,153.341 69.670 C 153.459 69.774,153.722 69.859,153.926 69.859 C 156.018 69.859,160.166 74.492,161.466 78.281 C 162.467 81.200,162.531 82.079,162.692 95.099 C 162.863 109.058,162.782 108.334,164.582 111.986 C 165.964 114.791,165.711 115.424,162.289 117.711 C 158.957 119.939,156.933 119.327,155.030 115.518 C 154.760 114.976,154.313 114.250,154.039 113.906 L 153.539 113.279 151.852 114.844 C 145.059 121.142,133.959 122.131,127.435 117.020 C 121.041 112.009,120.595 100.561,126.561 94.553 C 131.629 89.449,139.936 88.023,150.779 90.394 C 152.774 90.830,152.727 90.913,152.654 87.022 C 152.526 80.140,150.783 77.702,145.301 76.732 C 142.288 76.199,139.659 76.312,136.338 77.117 C 135.780 77.252,134.969 77.410,134.535 77.469 C 134.101 77.527,133.645 77.653,133.521 77.750 C 133.397 77.846,132.941 78.029,132.507 78.156 C 132.073 78.283,131.161 78.609,130.479 78.881 C 126.467 80.482,125.513 79.965,125.527 76.197 C 125.540 72.571,126.770 71.354,131.944 69.849 C 132.315 69.741,133.177 69.484,133.859 69.278 C 138.158 67.978,143.653 67.616,148.507 68.313 M260.932 68.298 C 266.414 69.187,270.212 70.859,270.993 72.728 C 271.448 73.817,271.440 77.319,270.980 78.208 C 270.454 79.227,268.838 79.124,266.507 77.925 C 263.220 76.234,255.341 75.788,251.458 77.074 C 247.378 78.425,246.240 83.133,249.322 85.910 C 250.761 87.206,252.408 87.932,257.690 89.596 C 258.310 89.791,259.172 90.084,259.606 90.245 C 260.039 90.407,261.408 90.869,262.648 91.272 C 267.858 92.966,272.901 96.954,272.901 99.381 C 272.901 99.579,273.001 99.841,273.123 99.963 C 274.112 100.951,274.120 108.844,273.133 109.830 C 273.006 109.958,272.901 110.224,272.901 110.422 C 272.901 110.906,271.051 113.704,270.016 114.785 C 268.353 116.521,266.502 117.672,262.873 119.224 C 259.201 120.795,249.312 120.728,244.053 119.097 C 238.181 117.276,237.070 116.230,237.070 112.525 C 237.070 108.469,238.463 107.902,242.753 110.209 C 242.966 110.323,243.523 110.515,243.992 110.635 C 244.461 110.754,245.301 110.969,245.859 111.111 C 246.417 111.253,247.279 111.486,247.775 111.628 C 249.610 112.156,257.935 111.967,259.493 111.363 C 265.244 109.133,265.732 102.844,260.335 100.503 C 259.748 100.249,259.115 99.961,258.930 99.863 C 258.744 99.765,257.375 99.304,255.887 98.839 C 254.400 98.373,252.980 97.913,252.732 97.816 C 252.485 97.720,251.673 97.463,250.930 97.246 C 249.338 96.782,248.126 96.338,246.849 95.750 C 246.339 95.516,245.846 95.324,245.752 95.324 C 244.062 95.324,239.116 89.853,238.520 87.324 C 238.432 86.952,238.248 86.506,238.110 86.332 C 237.727 85.849,237.780 79.861,238.175 78.873 C 239.527 75.493,241.076 73.449,243.736 71.536 C 245.736 70.098,248.595 68.911,251.493 68.318 C 252.931 68.024,259.158 68.010,260.932 68.298 M175.704 69.649 C 176.621 69.997,177.306 70.715,177.482 71.514 C 177.566 71.897,177.719 72.366,177.822 72.556 C 177.926 72.746,178.123 73.408,178.262 74.028 C 178.799 76.432,179.115 77.658,179.356 78.268 C 179.493 78.617,179.606 79.245,179.606 79.663 C 179.606 80.082,179.695 80.480,179.805 80.547 C 179.915 80.615,180.076 81.153,180.164 81.744 C 180.252 82.334,180.403 82.918,180.499 83.042 C 180.595 83.166,180.746 83.673,180.834 84.169 C 180.921 84.665,181.237 85.983,181.535 87.099 C 181.833 88.214,182.339 90.192,182.658 91.493 C 182.978 92.794,183.544 95.025,183.916 96.451 C 184.288 97.876,184.683 99.448,184.792 99.944 C 184.902 100.439,185.213 101.656,185.485 102.648 C 185.756 103.639,186.025 104.832,186.083 105.297 C 186.316 107.168,187.027 105.469,188.135 100.394 C 188.952 96.650,189.940 92.466,190.223 91.554 C 190.347 91.154,190.538 90.343,190.649 89.751 C 190.962 88.069,191.308 86.509,191.534 85.758 C 191.648 85.380,191.959 84.056,192.225 82.817 C 192.492 81.577,192.803 80.387,192.918 80.172 C 193.033 79.957,193.127 79.538,193.127 79.240 C 193.127 78.943,193.271 78.206,193.447 77.603 C 193.800 76.393,194.176 74.791,194.472 73.239 C 194.751 71.777,195.529 70.095,195.994 69.951 C 196.214 69.882,196.570 69.732,196.786 69.617 C 197.453 69.261,203.770 69.359,204.682 69.740 C 205.647 70.143,206.297 71.364,206.740 73.604 C 207.142 75.633,207.515 77.172,207.908 78.423 C 208.084 78.980,208.227 79.671,208.226 79.958 C 208.226 80.245,208.323 80.663,208.443 80.887 C 208.563 81.111,208.763 81.839,208.889 82.506 C 209.225 84.296,209.746 86.692,210.132 88.225 C 210.802 90.883,211.526 93.920,212.188 96.845 C 212.739 99.276,213.142 101.020,213.506 102.535 C 213.699 103.341,213.977 104.583,214.123 105.296 C 214.520 107.227,214.802 107.009,215.510 104.225 C 215.699 103.482,215.977 102.417,216.129 101.859 C 216.281 101.301,216.478 100.490,216.567 100.056 C 216.657 99.623,217.056 98.051,217.453 96.563 C 218.321 93.321,220.095 86.461,220.513 84.732 C 220.677 84.051,220.977 82.885,221.178 82.141 C 221.380 81.397,221.686 80.231,221.859 79.549 C 222.032 78.868,222.338 77.701,222.540 76.958 C 222.741 76.214,222.998 75.168,223.111 74.634 C 224.112 69.881,224.703 69.408,229.649 69.408 C 234.808 69.408,235.021 69.790,233.122 75.627 C 232.561 77.351,231.951 79.268,231.767 79.887 C 230.882 82.857,230.162 85.183,228.944 89.014 C 228.215 91.307,227.467 93.690,227.282 94.310 C 226.526 96.837,225.973 98.617,225.812 99.042 C 225.718 99.290,225.462 100.101,225.244 100.845 C 224.615 102.990,224.283 104.078,223.559 106.366 C 223.186 107.544,222.584 109.470,222.220 110.648 C 219.460 119.580,220.017 118.988,214.373 118.983 C 209.899 118.978,208.941 118.501,208.557 116.087 C 208.485 115.637,208.339 115.105,208.232 114.906 C 208.125 114.708,207.966 114.049,207.878 113.442 C 207.790 112.835,207.642 112.237,207.550 112.113 C 207.458 111.989,207.314 111.482,207.229 110.986 C 207.050 109.931,205.837 104.759,205.538 103.775 C 205.425 103.403,205.265 102.744,205.183 102.310 C 205.101 101.876,204.946 101.217,204.839 100.845 C 204.733 100.473,204.491 99.510,204.303 98.704 C 203.069 93.425,202.553 91.270,202.333 90.479 C 202.195 89.983,201.940 88.969,201.767 88.225 C 200.793 84.048,200.408 82.753,200.260 83.155 C 200.059 83.699,199.608 85.447,199.417 86.423 C 199.319 86.918,199.089 87.932,198.903 88.676 C 198.567 90.029,198.474 90.414,197.171 95.887 C 196.787 97.499,196.322 99.425,196.137 100.169 C 195.781 101.601,195.270 103.810,194.922 105.424 C 194.807 105.959,194.659 106.482,194.594 106.587 C 194.529 106.692,194.320 107.522,194.129 108.431 C 193.736 110.299,193.311 112.157,192.823 114.141 C 191.626 119.002,191.650 118.984,186.366 118.984 C 181.063 118.984,180.957 118.889,179.267 112.563 C 179.101 111.944,178.863 111.132,178.737 110.761 C 178.611 110.389,178.335 109.476,178.124 108.732 C 177.912 107.989,177.660 107.177,177.562 106.930 C 177.464 106.682,177.163 105.718,176.894 104.789 C 176.625 103.859,176.262 102.664,176.089 102.133 C 175.916 101.602,175.775 100.988,175.775 100.770 C 175.775 100.551,175.679 100.275,175.562 100.158 C 175.445 100.040,175.250 99.538,175.127 99.042 C 174.912 98.171,174.556 96.944,173.869 94.704 C 173.034 91.985,172.108 88.824,171.920 88.049 C 171.806 87.580,171.623 87.022,171.514 86.809 C 171.404 86.597,170.938 85.104,170.478 83.493 C 170.017 81.882,169.562 80.361,169.465 80.113 C 169.368 79.865,169.063 78.901,168.788 77.972 C 168.513 77.042,168.093 75.623,167.854 74.817 C 167.615 74.011,167.299 72.707,167.152 71.917 L 166.885 70.483 167.555 69.947 C 168.304 69.348,174.328 69.127,175.704 69.649 M140.732 96.905 C 135.210 97.516,132.520 100.378,132.794 105.352 C 133.022 109.496,134.842 111.567,138.615 111.976 C 140.278 112.156,143.482 111.916,144.338 111.547 C 144.586 111.440,145.042 111.288,145.352 111.210 C 149.669 110.119,152.343 106.402,152.662 101.048 C 152.844 97.991,152.695 97.577,151.411 97.577 C 151.043 97.577,150.011 97.433,149.117 97.256 C 147.083 96.854,142.811 96.675,140.732 96.905 M274.805 130.267 C 281.238 131.390,281.912 132.768,280.360 141.634 C 280.059 143.354,278.088 149.408,277.829 149.408 C 277.722 149.408,277.634 149.541,277.634 149.703 C 277.634 149.864,277.135 150.973,276.526 152.166 C 271.865 161.293,264.939 164.881,267.814 156.679 C 268.238 155.469,268.746 154.023,268.942 153.465 C 269.138 152.907,269.384 152.299,269.488 152.113 C 269.667 151.791,270.391 149.433,270.906 147.493 C 271.038 146.997,271.280 146.186,271.445 145.690 C 272.699 141.912,272.338 139.126,270.474 138.211 L 269.183 137.577 263.324 137.587 C 259.030 137.594,256.697 137.702,254.592 137.992 C 250.634 138.536,249.239 138.216,249.239 136.762 C 249.239 136.166,250.393 134.535,250.815 134.535 C 250.913 134.535,251.674 134.137,252.508 133.649 C 254.127 132.703,255.520 132.123,257.690 131.491 C 258.434 131.274,259.279 131.007,259.568 130.897 C 259.857 130.787,260.769 130.587,261.596 130.452 C 262.422 130.317,263.606 130.123,264.225 130.020 C 265.660 129.782,273.008 129.953,274.805 130.267 M119.563 133.980 C 120.423 134.419,121.431 134.960,121.803 135.182 C 124.355 136.707,135.351 142.018,137.016 142.530 C 137.325 142.625,137.679 142.779,137.803 142.871 C 137.927 142.963,138.637 143.247,139.380 143.501 C 140.124 143.756,141.239 144.186,141.859 144.458 C 142.914 144.920,144.115 145.352,148.282 146.766 C 149.211 147.081,150.986 147.621,152.225 147.965 C 153.465 148.309,154.631 148.670,154.817 148.767 C 155.177 148.954,157.489 149.568,158.986 149.872 C 159.482 149.973,160.293 150.159,160.789 150.285 C 162.150 150.632,167.383 151.829,168.789 152.115 C 169.470 152.253,171.397 152.564,173.070 152.805 C 174.744 153.046,176.975 153.389,178.028 153.568 C 188.630 155.364,206.323 155.514,218.592 153.910 C 219.397 153.804,221.324 153.562,222.873 153.370 C 224.423 153.179,226.654 152.813,227.831 152.558 C 229.008 152.303,230.732 151.946,231.662 151.766 C 232.592 151.586,234.062 151.236,234.929 150.987 C 235.796 150.739,236.746 150.535,237.039 150.535 C 237.333 150.535,238.094 150.372,238.730 150.173 C 241.562 149.286,241.934 149.181,242.247 149.182 C 242.777 149.184,246.518 147.984,254.648 145.205 C 255.949 144.760,257.138 144.297,257.289 144.176 C 257.441 144.055,257.897 143.874,258.303 143.774 C 258.710 143.674,259.904 143.229,260.958 142.786 C 263.866 141.562,265.398 141.933,266.184 144.051 C 266.710 145.468,265.234 148.258,263.943 148.285 C 263.850 148.287,263.431 148.591,263.012 148.961 C 262.592 149.331,262.157 149.634,262.044 149.634 C 261.932 149.634,261.718 149.737,261.568 149.862 C 260.542 150.724,258.998 151.730,257.352 152.609 C 256.299 153.172,254.777 154.006,253.972 154.463 C 253.166 154.919,251.949 155.549,251.268 155.861 C 248.775 157.003,246.181 158.222,245.559 158.544 C 245.208 158.725,244.781 158.873,244.609 158.873 C 244.290 158.873,243.065 159.362,241.993 159.916 C 241.664 160.086,241.232 160.225,241.033 160.225 C 240.833 160.225,240.494 160.323,240.279 160.443 C 239.455 160.901,237.756 161.577,237.431 161.577 C 237.245 161.577,236.859 161.671,236.574 161.785 C 236.078 161.984,234.078 162.580,231.437 163.318 C 230.755 163.508,229.944 163.762,229.634 163.882 C 229.324 164.002,228.614 164.188,228.056 164.296 C 225.858 164.720,224.543 165.021,224.113 165.198 C 223.865 165.300,223.206 165.445,222.648 165.521 C 222.090 165.598,220.975 165.803,220.169 165.978 C 209.632 168.264,191.939 168.791,181.859 167.119 C 180.806 166.944,179.132 166.683,178.141 166.538 C 177.149 166.393,175.882 166.175,175.324 166.053 C 174.766 165.932,173.549 165.683,172.620 165.501 C 169.329 164.856,168.931 164.756,161.972 162.827 C 160.531 162.427,158.159 161.660,157.014 161.224 C 156.549 161.046,155.789 160.759,155.324 160.584 C 154.557 160.297,153.548 159.895,149.874 158.417 C 147.694 157.539,142.223 154.878,139.718 153.478 C 139.037 153.097,137.921 152.510,137.239 152.174 C 136.558 151.839,134.899 150.825,133.553 149.923 C 132.208 149.020,131.063 148.282,131.009 148.282 C 130.894 148.282,130.051 147.700,127.887 146.126 C 127.020 145.496,126.158 144.912,125.972 144.829 C 125.786 144.746,125.055 144.196,124.348 143.607 C 123.640 143.017,122.542 142.130,121.907 141.634 C 120.826 140.790,119.874 139.977,117.016 137.453 C 113.766 134.583,115.666 131.994,119.563 133.980 " stroke="none" fill="#242c3c" fill-rule="evenodd"></path><path id="path1" d="M139.603 68.730 C 135.046 69.130,127.786 71.641,126.675 73.202 C 126.006 74.141,125.958 78.362,126.609 78.951 C 127.191 79.477,127.456 79.436,130.069 78.416 C 134.817 76.563,137.786 75.944,141.926 75.944 C 150.135 75.944,152.916 78.581,153.367 86.795 C 153.601 91.069,153.306 91.852,151.694 91.236 C 147.776 89.737,136.701 89.625,133.296 91.050 C 131.127 91.957,130.548 92.243,129.665 92.839 C 129.109 93.214,128.601 93.521,128.537 93.521 C 127.719 93.521,124.578 97.875,123.809 100.076 C 117.870 117.073,138.642 126.794,152.495 113.500 C 153.836 112.214,153.967 112.241,154.825 113.969 C 156.975 118.298,158.704 119.314,161.150 117.686 C 161.845 117.223,162.707 116.649,163.066 116.409 C 165.014 115.108,165.147 114.480,163.982 112.081 C 162.147 108.303,162.198 108.758,162.034 94.423 C 161.872 80.127,161.863 80.045,160.073 76.472 C 157.033 70.403,150.160 67.804,139.603 68.730 M252.958 68.727 C 241.647 70.051,235.209 79.713,239.695 88.630 C 241.888 92.990,245.933 95.395,255.662 98.125 C 263.938 100.447,266.729 104.419,263.494 109.273 C 260.705 113.457,250.658 113.943,241.630 110.331 C 238.179 108.950,237.775 109.167,237.713 112.435 C 237.656 115.422,238.542 116.499,242.141 117.818 C 253.575 122.009,266.602 119.651,270.977 112.600 C 271.220 112.208,271.474 111.837,271.541 111.775 C 273.111 110.319,273.875 103.480,272.795 100.536 C 271.186 96.149,267.800 93.439,261.408 91.425 C 259.358 90.778,255.259 89.427,253.400 88.785 C 247.995 86.917,245.685 83.176,247.613 79.415 C 249.682 75.381,258.705 74.439,266.704 77.423 C 267.572 77.747,268.562 78.115,268.905 78.241 C 270.267 78.740,270.648 78.095,270.648 75.289 L 270.648 72.841 269.768 72.046 C 267.151 69.682,258.832 68.039,252.958 68.727 M167.932 70.355 C 167.447 70.840,167.651 72.161,168.778 75.831 C 169.044 76.699,169.354 77.713,169.467 78.085 C 169.579 78.456,169.826 79.268,170.014 79.887 C 170.337 80.947,170.687 82.122,171.391 84.507 C 171.556 85.065,172.311 87.549,173.070 90.028 C 173.829 92.507,174.579 94.992,174.737 95.549 C 175.472 98.150,176.291 100.887,176.457 101.296 C 176.639 101.743,177.536 104.699,178.474 107.944 C 178.743 108.873,179.049 109.887,179.153 110.197 C 179.257 110.507,179.660 111.825,180.048 113.127 C 181.640 118.471,181.553 118.393,186.028 118.493 C 191.348 118.612,191.279 118.698,193.362 109.296 C 193.632 108.078,194.303 105.258,195.589 99.944 C 195.979 98.332,196.452 96.355,196.640 95.549 C 196.828 94.744,197.133 93.476,197.316 92.732 C 197.499 91.989,197.705 91.127,197.773 90.817 C 197.967 89.935,199.418 83.832,199.702 82.704 C 200.286 80.384,200.659 80.792,201.562 84.732 C 201.889 86.158,202.300 87.882,202.475 88.563 C 202.651 89.245,202.960 90.513,203.162 91.380 C 203.364 92.248,203.663 93.465,203.826 94.085 C 203.989 94.704,204.382 96.327,204.699 97.690 C 205.016 99.054,205.640 101.690,206.084 103.549 C 206.529 105.408,207.047 107.589,207.237 108.394 C 207.426 109.200,207.669 110.163,207.777 110.535 C 207.886 110.907,208.193 112.175,208.459 113.352 C 209.594 118.362,209.810 118.542,214.648 118.521 C 219.240 118.502,219.149 118.595,221.286 111.662 C 223.224 105.373,223.641 104.032,224.893 100.056 C 226.395 95.287,227.768 90.821,227.941 90.141 C 228.020 89.831,228.173 89.375,228.280 89.127 C 228.387 88.879,228.696 87.915,228.966 86.986 C 229.236 86.056,229.843 84.079,230.315 82.592 C 233.469 72.653,233.772 71.567,233.591 70.846 C 233.408 70.118,232.917 70.040,229.028 70.124 C 224.671 70.219,224.848 70.031,223.313 76.169 C 222.801 78.214,222.234 80.445,222.052 81.127 C 221.870 81.808,221.638 82.721,221.535 83.155 C 221.433 83.589,220.820 85.972,220.175 88.451 C 219.529 90.930,218.920 93.313,218.822 93.746 C 218.650 94.506,217.740 97.996,216.296 103.437 C 215.917 104.862,215.531 106.417,215.436 106.891 C 215.089 108.645,214.287 108.588,213.891 106.781 C 213.745 106.119,213.479 104.969,213.300 104.225 C 212.399 100.487,211.003 94.493,210.570 92.507 C 210.408 91.763,210.114 90.496,209.916 89.690 C 209.718 88.885,209.413 87.566,209.237 86.761 C 209.062 85.955,208.608 84.028,208.229 82.479 C 207.850 80.930,207.379 78.952,207.182 78.085 C 206.986 77.217,206.678 75.899,206.499 75.155 C 206.320 74.411,206.081 73.373,205.967 72.848 C 205.400 70.219,205.003 70.033,200.159 70.126 C 195.500 70.216,195.833 69.887,194.498 75.718 C 194.229 76.896,193.913 78.214,193.797 78.648 C 193.681 79.082,193.428 80.146,193.236 81.014 C 193.044 81.882,192.741 83.200,192.564 83.944 C 192.387 84.687,191.932 86.614,191.553 88.225 C 191.175 89.837,190.718 91.763,190.538 92.507 C 190.359 93.251,190.053 94.569,189.859 95.437 C 189.665 96.304,189.360 97.623,189.181 98.366 C 188.077 102.957,187.483 105.560,187.353 106.372 C 186.874 109.369,186.063 108.036,184.678 101.972 C 184.509 101.228,183.593 97.577,182.643 93.859 C 181.693 90.141,180.785 86.541,180.624 85.859 C 180.464 85.177,179.703 82.186,178.934 79.211 C 178.164 76.237,177.440 73.409,177.323 72.929 C 176.673 70.243,176.373 70.085,171.949 70.085 C 169.336 70.085,168.121 70.166,167.932 70.355 M148.620 96.571 C 153.736 97.336,153.564 97.195,153.376 100.456 C 152.984 107.262,149.923 110.945,143.499 112.341 C 136.538 113.853,132.046 110.875,132.059 104.756 C 132.072 98.034,138.189 95.011,148.620 96.571 " stroke="none" fill="#f3f4f5" fill-rule="evenodd"></path><path id="path2" d="M264.901 130.739 C 257.600 131.380,247.726 135.923,250.695 137.276 C 251.156 137.486,252.172 137.456,255.499 137.133 C 266.050 136.107,271.778 136.794,272.690 139.192 C 273.284 140.755,272.457 146.168,271.111 149.521 C 271.011 149.769,270.699 150.732,270.417 151.662 C 270.135 152.592,269.847 153.454,269.777 153.577 C 269.707 153.701,269.356 154.614,268.997 155.606 C 268.638 156.597,268.198 157.808,268.018 158.296 C 267.554 159.557,267.770 160.225,268.641 160.225 C 270.541 160.225,275.759 153.242,277.648 148.169 C 280.105 141.569,281.020 134.481,279.630 132.807 C 278.737 131.731,275.974 130.995,271.736 130.706 C 268.140 130.461,268.066 130.461,264.901 130.739 M116.510 134.307 C 115.612 135.205,116.040 135.797,119.961 139.077 C 129.672 147.198,140.980 154.046,151.887 158.411 C 153.189 158.932,154.456 159.449,154.704 159.559 C 155.451 159.891,158.383 160.882,161.014 161.691 C 165.938 163.204,167.713 163.700,169.859 164.158 C 170.758 164.350,172.177 164.654,173.014 164.834 C 190.279 168.547,209.530 168.149,227.155 163.715 C 228.828 163.293,230.654 162.835,231.211 162.695 C 231.769 162.555,232.428 162.364,232.676 162.271 C 232.924 162.178,235.062 161.468,237.428 160.692 C 239.794 159.916,242.025 159.147,242.386 158.983 C 242.747 158.819,244.056 158.260,245.296 157.742 C 255.832 153.339,265.690 147.092,265.690 144.821 C 265.690 142.727,263.655 142.450,259.819 144.024 C 257.073 145.150,250.792 147.396,246.986 148.612 C 244.998 149.247,241.978 150.059,236.958 151.306 C 233.493 152.167,232.790 152.312,226.028 153.559 C 209.891 156.537,189.944 156.531,172.845 153.544 C 171.792 153.360,170.068 153.069,169.014 152.898 C 167.961 152.727,166.744 152.492,166.310 152.376 C 165.876 152.260,164.710 151.990,163.718 151.776 C 162.046 151.415,158.426 150.511,155.493 149.720 C 152.684 148.963,146.367 146.985,145.465 146.580 C 145.093 146.413,144.180 146.074,143.437 145.827 C 137.717 143.922,127.190 139.125,120.927 135.568 C 117.890 133.844,117.176 133.640,116.510 134.307 " stroke="none" fill="#e99333" fill-rule="evenodd"></path><path id="path3" d="M140.620 68.074 C 138.130 68.261,135.924 68.653,133.859 69.278 C 133.177 69.484,132.315 69.743,131.944 69.853 C 127.217 71.256,125.772 72.472,125.585 75.204 C 125.266 79.856,126.210 80.568,130.479 78.888 C 133.122 77.848,133.550 77.701,134.423 77.531 C 134.918 77.434,135.780 77.246,136.338 77.113 C 141.732 75.827,147.952 76.514,150.100 78.634 C 151.856 80.365,152.484 82.345,152.696 86.811 C 152.890 90.903,152.888 90.908,150.920 90.440 C 137.848 87.336,127.632 90.435,123.679 98.704 C 121.917 102.392,121.997 108.605,123.855 112.458 C 128.357 121.789,143.002 123.049,151.828 114.866 C 153.785 113.051,153.744 113.049,154.760 115.009 C 157.035 119.395,158.814 120.034,162.289 117.711 C 165.740 115.404,165.978 114.783,164.531 111.858 C 162.751 108.258,162.838 109.044,162.678 95.099 C 162.528 82.068,162.465 81.193,161.466 78.281 C 160.166 74.492,156.018 69.859,153.926 69.859 C 153.722 69.859,153.459 69.774,153.341 69.670 C 152.069 68.543,145.441 67.712,140.620 68.074 M251.493 68.318 C 244.937 69.661,240.405 73.170,238.301 78.535 C 237.787 79.845,237.643 85.742,238.110 86.332 C 238.248 86.506,238.432 86.952,238.520 87.324 C 239.116 89.853,244.062 95.324,245.752 95.324 C 245.846 95.324,246.339 95.516,246.849 95.750 C 248.126 96.338,249.338 96.782,250.930 97.246 C 251.673 97.463,252.485 97.720,252.732 97.816 C 252.980 97.913,254.400 98.373,255.887 98.839 C 257.375 99.304,258.744 99.762,258.930 99.856 C 259.115 99.951,259.833 100.291,260.523 100.612 C 265.756 103.048,265.205 109.210,259.566 111.317 C 257.309 112.160,250.065 112.311,247.562 111.567 C 247.183 111.455,246.417 111.248,245.859 111.108 C 245.301 110.967,244.462 110.754,243.994 110.635 C 243.525 110.515,242.631 110.171,242.006 109.869 C 238.179 108.023,237.070 108.620,237.070 112.525 C 237.070 116.670,239.172 118.158,247.437 119.864 C 251.756 120.756,260.101 120.410,262.873 119.224 C 267.672 117.171,270.496 114.998,271.876 112.297 C 272.118 111.824,272.427 111.285,272.562 111.099 C 274.043 109.071,274.436 101.276,273.125 99.964 C 273.002 99.841,272.901 99.579,272.901 99.381 C 272.901 96.954,267.858 92.966,262.648 91.272 C 261.408 90.869,260.039 90.407,259.606 90.245 C 259.172 90.084,258.310 89.792,257.690 89.597 C 252.603 87.995,251.018 87.315,249.410 86.041 C 246.180 83.483,247.331 78.440,251.458 77.074 C 255.341 75.788,263.220 76.234,266.507 77.925 C 270.153 79.801,271.324 79.219,271.324 75.532 C 271.324 71.595,270.109 70.526,263.775 68.889 C 260.587 68.065,254.182 67.768,251.493 68.318 M146.817 68.728 C 154.869 69.463,159.480 72.999,161.396 79.908 C 161.868 81.612,161.896 82.252,162.034 94.423 C 162.198 108.758,162.147 108.303,163.982 112.081 C 165.147 114.480,165.014 115.108,163.066 116.409 C 162.707 116.649,161.845 117.223,161.150 117.686 C 158.704 119.314,156.975 118.298,154.825 113.969 C 153.967 112.241,153.836 112.214,152.495 113.500 C 145.916 119.814,137.036 121.493,129.699 117.811 C 123.091 114.495,120.770 104.097,125.126 97.319 C 125.831 96.223,128.257 93.521,128.537 93.521 C 128.601 93.521,129.109 93.214,129.665 92.839 C 130.548 92.243,131.127 91.957,133.296 91.050 C 136.701 89.625,147.776 89.737,151.694 91.236 C 153.306 91.852,153.601 91.069,153.367 86.795 C 152.916 78.581,150.135 75.944,141.926 75.944 C 137.786 75.944,134.817 76.563,130.069 78.416 C 126.419 79.841,126.197 79.716,126.197 76.225 C 126.197 72.738,126.976 72.031,132.780 70.250 C 138.124 68.610,141.507 68.243,146.817 68.728 M259.155 68.733 C 263.646 69.161,268.120 70.557,269.768 72.046 L 270.648 72.841 270.648 75.289 C 270.648 78.095,270.267 78.740,268.905 78.241 C 268.562 78.115,267.572 77.747,266.704 77.423 C 258.705 74.439,249.682 75.381,247.613 79.415 C 245.685 83.176,247.995 86.917,253.400 88.785 C 255.259 89.427,259.358 90.778,261.408 91.425 C 267.800 93.439,271.186 96.149,272.795 100.536 C 273.875 103.480,273.111 110.319,271.541 111.775 C 271.474 111.837,271.220 112.208,270.977 112.600 C 266.602 119.651,253.575 122.009,242.141 117.818 C 238.542 116.499,237.656 115.422,237.713 112.435 C 237.775 109.167,238.179 108.950,241.630 110.331 C 250.658 113.943,260.705 113.457,263.494 109.273 C 266.729 104.419,263.938 100.447,255.662 98.125 C 243.850 94.810,239.693 91.605,238.504 84.898 C 236.724 74.853,246.128 67.492,259.155 68.733 M167.555 69.947 L 166.885 70.483 167.152 71.917 C 167.299 72.707,167.615 74.011,167.854 74.817 C 168.093 75.623,168.513 77.042,168.788 77.972 C 169.063 78.901,169.367 79.865,169.463 80.113 C 169.729 80.798,170.837 84.501,171.082 85.521 C 171.201 86.017,171.392 86.597,171.505 86.809 C 171.619 87.022,171.806 87.580,171.920 88.049 C 172.108 88.824,173.034 91.985,173.869 94.704 C 174.556 96.944,174.912 98.171,175.127 99.042 C 175.250 99.538,175.445 100.040,175.562 100.158 C 175.679 100.275,175.775 100.551,175.775 100.770 C 175.775 100.988,175.915 101.602,176.086 102.133 C 176.257 102.664,176.624 103.859,176.903 104.789 C 177.181 105.718,177.482 106.682,177.571 106.930 C 178.052 108.269,178.479 109.737,178.479 110.051 C 178.479 110.247,178.624 110.740,178.801 111.147 C 178.978 111.554,179.374 112.805,179.680 113.926 C 181.006 118.788,181.267 118.984,186.389 118.985 C 191.456 118.986,191.904 118.645,192.887 114.028 C 193.005 113.470,193.255 112.355,193.442 111.549 C 193.628 110.744,193.937 109.341,194.129 108.431 C 194.320 107.522,194.529 106.692,194.594 106.587 C 194.659 106.482,194.807 105.959,194.922 105.424 C 195.270 103.810,195.781 101.601,196.137 100.169 C 196.322 99.425,196.787 97.499,197.171 95.887 C 198.474 90.414,198.567 90.029,198.903 88.676 C 199.089 87.932,199.323 86.918,199.424 86.423 C 200.264 82.300,200.343 82.200,200.882 84.570 C 201.113 85.589,201.441 86.857,201.609 87.388 C 201.778 87.919,201.915 88.519,201.915 88.720 C 201.915 88.922,202.067 89.603,202.252 90.234 C 202.548 91.245,202.873 92.585,204.303 98.704 C 204.491 99.510,204.733 100.473,204.839 100.845 C 204.946 101.217,205.101 101.876,205.183 102.310 C 205.265 102.744,205.425 103.403,205.538 103.775 C 205.837 104.759,207.050 109.931,207.229 110.986 C 207.314 111.482,207.458 111.989,207.550 112.113 C 207.642 112.237,207.790 112.835,207.878 113.442 C 207.966 114.049,208.125 114.708,208.232 114.906 C 208.339 115.105,208.485 115.637,208.557 116.087 C 208.717 117.097,209.516 118.321,210.260 118.698 C 211.082 119.113,217.683 119.089,218.694 118.667 C 219.907 118.160,220.346 117.063,223.252 107.268 C 223.454 106.586,223.756 105.709,223.922 105.318 C 224.089 104.927,224.225 104.475,224.225 104.312 C 224.225 104.148,224.367 103.606,224.540 103.106 C 224.712 102.606,225.031 101.589,225.247 100.845 C 225.464 100.101,225.718 99.290,225.812 99.042 C 225.977 98.606,226.553 96.749,227.315 94.197 C 227.518 93.515,227.912 92.248,228.190 91.380 C 228.467 90.513,229.071 88.586,229.532 87.099 C 229.993 85.611,230.593 83.685,230.867 82.817 C 231.141 81.949,231.531 80.682,231.734 80.000 C 231.937 79.318,232.561 77.351,233.122 75.627 C 235.021 69.790,234.808 69.408,229.649 69.408 C 224.703 69.408,224.112 69.881,223.111 74.634 C 222.998 75.168,222.741 76.214,222.540 76.958 C 222.338 77.701,222.032 78.868,221.859 79.549 C 221.686 80.231,221.380 81.397,221.178 82.141 C 220.977 82.885,220.677 84.051,220.511 84.732 C 219.949 87.048,217.501 96.557,217.117 97.915 C 216.908 98.659,216.661 99.623,216.570 100.056 C 216.479 100.490,216.292 101.251,216.155 101.746 C 216.018 102.242,215.683 103.535,215.411 104.620 C 214.836 106.917,214.493 107.097,214.123 105.296 C 213.977 104.583,213.699 103.341,213.506 102.535 C 213.142 101.020,212.739 99.276,212.188 96.845 C 211.526 93.920,210.802 90.883,210.132 88.225 C 209.746 86.692,209.225 84.296,208.889 82.506 C 208.763 81.839,208.563 81.111,208.443 80.887 C 208.323 80.663,208.226 80.245,208.226 79.958 C 208.227 79.671,208.084 78.980,207.908 78.423 C 207.515 77.172,207.142 75.633,206.740 73.604 C 206.297 71.364,205.647 70.143,204.682 69.740 C 203.770 69.359,197.453 69.261,196.786 69.617 C 196.570 69.732,196.214 69.882,195.994 69.951 C 195.529 70.095,194.751 71.777,194.472 73.239 C 194.176 74.791,193.800 76.393,193.447 77.603 C 193.271 78.206,193.127 78.943,193.127 79.240 C 193.127 79.538,193.033 79.957,192.918 80.172 C 192.803 80.387,192.492 81.577,192.225 82.817 C 191.959 84.056,191.648 85.380,191.534 85.758 C 191.329 86.439,191.138 87.294,190.554 90.141 C 190.389 90.946,190.042 92.417,189.784 93.408 C 189.326 95.165,188.630 98.119,188.137 100.394 C 188.003 101.014,187.764 101.977,187.605 102.535 C 187.447 103.093,187.250 103.939,187.166 104.414 C 186.878 106.055,186.141 107.056,186.141 105.806 C 186.141 105.497,185.882 104.255,185.565 103.045 C 185.248 101.835,184.899 100.439,184.791 99.944 C 184.682 99.448,184.288 97.876,183.916 96.451 C 183.544 95.025,182.978 92.794,182.658 91.493 C 182.339 90.192,181.833 88.214,181.535 87.099 C 181.237 85.983,180.921 84.665,180.834 84.169 C 180.746 83.673,180.595 83.166,180.499 83.042 C 180.403 82.918,180.252 82.334,180.164 81.744 C 180.076 81.153,179.915 80.615,179.805 80.547 C 179.695 80.480,179.606 80.101,179.607 79.705 C 179.607 79.310,179.462 78.530,179.284 77.972 C 179.105 77.414,178.789 76.299,178.581 75.493 C 176.989 69.336,177.071 69.408,171.669 69.410 C 168.381 69.411,168.195 69.435,167.555 69.947 M176.158 70.592 C 176.763 71.256,177.064 71.861,177.323 72.929 C 177.440 73.409,178.164 76.237,178.934 79.211 C 179.703 82.186,180.464 85.177,180.624 85.859 C 180.785 86.541,181.693 90.141,182.643 93.859 C 183.593 97.577,184.509 101.228,184.678 101.972 C 186.063 108.036,186.874 109.369,187.353 106.372 C 187.483 105.560,188.077 102.957,189.181 98.366 C 189.360 97.623,189.665 96.304,189.859 95.437 C 190.053 94.569,190.359 93.251,190.538 92.507 C 190.718 91.763,191.175 89.837,191.553 88.225 C 191.932 86.614,192.387 84.687,192.564 83.944 C 192.741 83.200,193.044 81.882,193.236 81.014 C 193.428 80.146,193.681 79.082,193.797 78.648 C 193.913 78.214,194.229 76.896,194.498 75.718 C 195.833 69.887,195.500 70.216,200.159 70.126 C 205.003 70.033,205.400 70.219,205.967 72.848 C 206.081 73.373,206.320 74.411,206.499 75.155 C 206.678 75.899,206.986 77.217,207.182 78.085 C 207.379 78.952,207.850 80.930,208.229 82.479 C 208.608 84.028,209.062 85.955,209.237 86.761 C 209.413 87.566,209.718 88.885,209.916 89.690 C 210.114 90.496,210.408 91.763,210.570 92.507 C 211.003 94.493,212.399 100.487,213.300 104.225 C 213.479 104.969,213.745 106.119,213.891 106.781 C 214.287 108.588,215.089 108.645,215.436 106.891 C 215.531 106.417,215.917 104.862,216.296 103.437 C 217.740 97.996,218.650 94.506,218.822 93.746 C 218.920 93.313,219.529 90.930,220.175 88.451 C 220.820 85.972,221.433 83.589,221.535 83.155 C 221.638 82.721,221.870 81.808,222.052 81.127 C 222.234 80.445,222.801 78.214,223.313 76.169 C 224.848 70.031,224.671 70.219,229.028 70.124 C 232.917 70.040,233.408 70.118,233.591 70.846 C 233.772 71.567,233.469 72.653,230.315 82.592 C 229.843 84.079,229.236 86.056,228.966 86.986 C 228.696 87.915,228.387 88.879,228.280 89.127 C 228.173 89.375,228.020 89.831,227.941 90.141 C 227.768 90.821,226.395 95.287,224.893 100.056 C 223.641 104.032,223.224 105.373,221.286 111.662 C 219.149 118.595,219.240 118.502,214.648 118.521 C 209.810 118.542,209.594 118.362,208.459 113.352 C 208.193 112.175,207.886 110.907,207.777 110.535 C 207.669 110.163,207.426 109.200,207.237 108.394 C 207.047 107.589,206.529 105.408,206.084 103.549 C 205.640 101.690,205.016 99.054,204.699 97.690 C 204.382 96.327,203.989 94.704,203.826 94.085 C 203.663 93.465,203.364 92.248,203.162 91.380 C 202.960 90.513,202.651 89.245,202.475 88.563 C 202.300 87.882,201.889 86.158,201.562 84.732 C 200.659 80.792,200.286 80.384,199.702 82.704 C 199.418 83.832,197.967 89.935,197.773 90.817 C 197.705 91.127,197.499 91.989,197.316 92.732 C 197.133 93.476,196.828 94.744,196.640 95.549 C 196.452 96.355,195.979 98.332,195.589 99.944 C 194.303 105.258,193.632 108.078,193.362 109.296 C 191.279 118.698,191.348 118.612,186.028 118.493 C 181.553 118.393,181.640 118.471,180.048 113.127 C 179.660 111.825,179.257 110.507,179.153 110.197 C 179.049 109.887,178.743 108.873,178.474 107.944 C 177.536 104.699,176.639 101.743,176.457 101.296 C 176.291 100.887,175.472 98.150,174.737 95.549 C 174.579 94.992,173.829 92.507,173.070 90.028 C 172.311 87.549,171.556 85.065,171.391 84.507 C 170.687 82.122,170.337 80.947,170.014 79.887 C 169.826 79.268,169.579 78.456,169.467 78.085 C 169.354 77.713,169.044 76.699,168.778 75.831 C 167.651 72.161,167.447 70.840,167.932 70.355 C 168.497 69.790,175.615 69.995,176.158 70.592 M139.157 96.490 C 132.607 97.739,129.851 105.066,133.907 110.444 C 137.503 115.212,149.827 112.117,152.388 105.803 C 153.282 103.597,153.789 98.508,153.192 97.724 C 152.369 96.643,142.778 95.800,139.157 96.490 M149.117 97.256 C 150.011 97.433,151.097 97.577,151.532 97.577 C 152.700 97.577,152.852 98.037,152.677 101.033 C 152.361 106.399,149.727 110.058,145.352 111.205 C 145.042 111.286,144.586 111.440,144.338 111.547 C 142.732 112.239,137.600 112.166,136.151 111.429 C 131.570 109.100,131.594 100.615,136.188 98.200 C 138.964 96.742,144.479 96.339,149.117 97.256 M249.915 136.885 C 249.915 137.596,251.052 138.221,251.380 137.690 C 251.457 137.566,251.361 137.465,251.168 137.465 C 250.975 137.465,250.614 137.262,250.366 137.014 C 250.036 136.684,249.915 136.649,249.915 136.885 M265.219 143.662 C 265.610 144.426,265.908 144.801,265.912 144.532 C 265.914 144.391,265.707 144.036,265.452 143.743 C 265.088 143.325,265.038 143.308,265.219 143.662 M267.511 159.710 C 267.489 160.600,268.025 160.959,268.845 160.605 L 269.408 160.361 268.690 160.280 C 268.154 160.219,267.916 160.046,267.750 159.592 L 267.529 158.986 267.511 159.710 " stroke="none" fill="#70757d" fill-rule="evenodd"></path><path id="path4" d="M152.616 89.465 C 152.616 89.899,152.662 90.076,152.719 89.859 C 152.775 89.642,152.775 89.287,152.719 89.070 C 152.662 88.854,152.616 89.031,152.616 89.465 M264.225 130.020 C 263.606 130.123,262.422 130.317,261.596 130.452 C 260.769 130.587,259.857 130.787,259.568 130.897 C 259.279 131.007,258.434 131.274,257.690 131.491 C 255.520 132.123,254.127 132.703,252.508 133.649 C 251.674 134.137,250.913 134.535,250.815 134.535 C 250.393 134.535,249.239 136.166,249.239 136.762 C 249.239 138.216,250.634 138.536,254.592 137.992 C 256.697 137.702,259.030 137.594,263.324 137.587 L 269.183 137.577 270.474 138.211 C 272.338 139.126,272.699 141.912,271.445 145.690 C 271.280 146.186,271.038 146.997,270.906 147.493 C 270.391 149.433,269.667 151.791,269.488 152.113 C 269.384 152.299,269.138 152.907,268.942 153.465 C 268.746 154.023,268.238 155.469,267.814 156.679 C 264.939 164.881,271.865 161.293,276.526 152.166 C 277.135 150.973,277.634 149.864,277.634 149.703 C 277.634 149.541,277.722 149.408,277.829 149.408 C 278.088 149.408,280.059 143.354,280.360 141.634 C 281.912 132.768,281.238 131.390,274.805 130.267 C 273.008 129.953,265.660 129.782,264.225 130.020 M271.736 130.706 C 275.974 130.995,278.737 131.731,279.630 132.807 C 281.020 134.481,280.105 141.569,277.648 148.169 C 276.357 151.635,273.033 156.810,270.761 158.890 C 270.162 159.439,269.511 160.051,269.315 160.251 C 268.195 161.391,266.928 160.346,267.708 158.927 C 268.073 158.262,269.521 154.387,269.521 154.075 C 269.521 153.913,269.608 153.684,269.714 153.566 C 269.820 153.448,270.137 152.592,270.419 151.662 C 270.700 150.732,271.011 149.769,271.111 149.521 C 272.457 146.168,273.284 140.755,272.690 139.192 C 272.378 138.371,271.108 137.504,269.606 137.087 C 267.102 136.391,252.362 136.915,251.335 137.736 C 250.947 138.046,250.189 137.746,250.021 137.217 C 249.221 134.697,259.423 130.857,267.831 130.513 C 268.203 130.498,269.960 130.585,271.736 130.706 M115.933 133.736 C 114.949 134.720,115.305 135.942,117.016 137.453 C 119.874 139.977,120.826 140.790,121.907 141.634 C 122.542 142.130,123.640 143.017,124.348 143.607 C 125.055 144.196,125.786 144.746,125.972 144.829 C 126.158 144.912,127.020 145.496,127.887 146.126 C 130.051 147.700,130.894 148.282,131.009 148.282 C 131.063 148.282,132.208 149.020,133.553 149.923 C 134.899 150.825,136.558 151.839,137.239 152.174 C 137.921 152.510,139.037 153.097,139.718 153.478 C 142.223 154.878,147.694 157.539,149.874 158.417 C 153.548 159.895,154.557 160.297,155.324 160.584 C 155.789 160.759,156.549 161.046,157.014 161.224 C 158.159 161.660,160.531 162.427,161.972 162.827 C 168.931 164.756,169.329 164.856,172.620 165.501 C 173.549 165.683,174.766 165.932,175.324 166.053 C 175.882 166.175,177.149 166.393,178.141 166.538 C 179.132 166.683,180.806 166.944,181.859 167.119 C 191.939 168.791,209.632 168.264,220.169 165.978 C 220.975 165.803,222.090 165.598,222.648 165.521 C 223.206 165.445,223.865 165.300,224.113 165.198 C 224.543 165.021,225.858 164.720,228.056 164.296 C 228.614 164.188,229.324 164.002,229.634 163.882 C 229.944 163.762,230.755 163.508,231.437 163.318 C 234.078 162.580,236.078 161.984,236.574 161.785 C 236.859 161.671,237.245 161.577,237.431 161.577 C 237.756 161.577,239.455 160.901,240.279 160.443 C 240.494 160.323,240.833 160.225,241.033 160.225 C 241.232 160.225,241.664 160.086,241.993 159.916 C 243.065 159.362,244.290 158.873,244.609 158.873 C 244.781 158.873,245.208 158.725,245.559 158.544 C 246.181 158.222,248.775 157.003,251.268 155.861 C 251.949 155.549,253.166 154.919,253.972 154.463 C 254.777 154.006,256.299 153.172,257.352 152.609 C 258.998 151.730,260.542 150.724,261.568 149.862 C 261.718 149.737,261.932 149.634,262.044 149.634 C 262.157 149.634,262.592 149.331,263.012 148.961 C 263.431 148.591,263.850 148.287,263.943 148.285 C 265.234 148.258,266.710 145.468,266.184 144.051 C 265.398 141.933,263.866 141.562,260.958 142.786 C 259.904 143.229,258.710 143.674,258.303 143.774 C 257.897 143.874,257.441 144.055,257.289 144.176 C 256.740 144.616,243.012 149.185,242.247 149.182 C 241.934 149.181,241.562 149.286,238.730 150.173 C 238.094 150.372,237.333 150.535,237.039 150.535 C 236.746 150.535,235.796 150.739,234.929 150.987 C 234.062 151.236,232.592 151.586,231.662 151.766 C 230.732 151.946,229.008 152.303,227.831 152.558 C 226.654 152.813,224.423 153.179,222.873 153.370 C 221.324 153.562,219.397 153.804,218.592 153.910 C 206.323 155.514,188.630 155.364,178.028 153.568 C 176.975 153.389,174.744 153.046,173.070 152.805 C 171.397 152.564,169.470 152.253,168.789 152.115 C 167.383 151.829,162.150 150.632,160.789 150.285 C 160.293 150.159,159.482 149.973,158.986 149.872 C 157.489 149.568,155.177 148.954,154.817 148.767 C 154.631 148.670,153.465 148.309,152.225 147.965 C 150.986 147.621,149.211 147.081,148.282 146.766 C 144.115 145.352,142.914 144.920,141.859 144.458 C 141.239 144.186,140.124 143.756,139.380 143.501 C 138.637 143.247,137.927 142.963,137.803 142.871 C 137.679 142.779,137.325 142.625,137.016 142.530 C 135.351 142.018,124.355 136.707,121.803 135.182 C 118.423 133.162,116.886 132.784,115.933 133.736 M120.927 135.568 C 127.190 139.125,137.717 143.922,143.437 145.827 C 144.180 146.074,145.093 146.413,145.465 146.580 C 146.367 146.985,152.684 148.963,155.493 149.720 C 158.426 150.511,162.046 151.415,163.718 151.776 C 164.710 151.990,165.876 152.260,166.310 152.376 C 166.744 152.492,167.961 152.727,169.014 152.898 C 170.068 153.069,171.792 153.360,172.845 153.544 C 189.944 156.531,209.891 156.537,226.028 153.559 C 232.790 152.312,233.493 152.167,236.958 151.306 C 241.978 150.059,244.998 149.247,246.986 148.612 C 250.792 147.396,257.073 145.150,259.819 144.024 C 264.040 142.293,266.347 142.756,265.673 145.198 C 265.037 147.500,254.962 153.702,245.296 157.742 C 244.056 158.260,242.747 158.819,242.386 158.983 C 242.025 159.147,239.794 159.916,237.428 160.692 C 235.062 161.468,232.924 162.178,232.676 162.271 C 232.428 162.364,231.769 162.555,231.211 162.695 C 230.654 162.835,228.828 163.293,227.155 163.715 C 220.806 165.312,215.684 166.172,208.338 166.872 C 196.958 167.958,184.083 167.215,173.014 164.834 C 172.177 164.654,170.758 164.350,169.859 164.158 C 166.491 163.438,156.841 160.510,154.704 159.559 C 154.456 159.449,153.189 158.932,151.887 158.411 C 139.995 153.652,121.640 142.038,116.662 136.122 C 114.535 133.594,116.906 133.286,120.927 135.568 " stroke="none" fill="#73542e" fill-rule="evenodd"></path></g></svg>