<svg id="svg" version="1.1" xmlns="http://www.w3.org/2000/svg" xmlns:xlink="http://www.w3.org/1999/xlink" width="400" height="342" viewBox="0, 0, 400,342"><g id="svgg"><path id="path0" d="M0.856 1.583 C 1.361 2.454,16.321 27.992,34.100 58.333 C 51.879 88.675,72.578 124.000,80.097 136.833 C 87.617 149.667,99.049 169.167,105.504 180.167 C 111.958 191.167,132.990 227.017,152.242 259.833 C 183.847 313.709,199.452 340.269,200.319 341.667 C 200.826 342.484,200.560 342.923,224.582 301.667 C 237.232 279.942,255.229 249.042,264.576 233.000 C 302.794 167.404,357.333 73.731,378.498 37.333 C 387.079 22.575,395.416 8.250,397.024 5.500 C 399.788 0.772,399.907 0.488,399.223 0.283 C 398.826 0.164,308.823 0.052,199.218 0.033 L -0.063 -0.000 0.856 1.583 M371.890 17.139 C 371.663 17.731,366.915 26.023,351.069 53.500 C 330.768 88.703,290.430 158.522,287.999 162.667 C 286.762 164.775,284.510 168.675,282.994 171.333 C 281.479 173.992,280.137 176.242,280.012 176.333 C 279.887 176.425,279.684 176.772,279.561 177.105 C 278.732 179.348,270.830 192.307,270.618 191.771 C 270.445 191.331,270.374 191.462,270.357 192.252 C 270.329 193.518,263.446 205.667,262.756 205.667 C 262.524 205.667,262.333 205.812,262.333 205.989 C 262.333 206.452,258.959 212.537,258.167 213.504 L 257.500 214.318 253.608 213.174 C 246.087 210.966,243.326 210.940,234.333 212.995 C 224.344 215.279,216.391 214.965,208.024 211.957 C 201.027 209.442,199.319 209.469,191.044 212.233 L 185.500 214.084 181.667 213.911 C 178.842 213.783,176.210 213.368,171.667 212.334 C 162.341 210.212,157.075 210.554,148.643 213.830 C 143.734 215.737,144.416 215.985,141.641 211.282 C 140.304 209.019,139.039 207.017,138.828 206.833 C 138.617 206.650,136.459 203.125,134.033 199.000 C 128.840 190.172,129.949 192.049,125.015 183.737 C 122.807 180.018,121.000 176.843,121.000 176.682 C 121.000 176.521,120.875 176.339,120.723 176.278 C 120.570 176.217,119.396 174.367,118.114 172.167 C 114.445 165.872,27.284 18.254,26.742 17.417 L 26.257 16.667 199.164 16.667 C 348.255 16.667,372.046 16.732,371.890 17.139 M257.494 166.167 C 257.494 184.317,257.534 191.693,257.583 182.558 C 257.633 173.423,257.633 158.573,257.583 149.558 C 257.534 140.543,257.494 148.017,257.494 166.167 M220.750 140.896 C 221.071 140.980,221.596 140.980,221.917 140.896 C 222.237 140.813,221.975 140.744,221.333 140.744 C 220.692 140.744,220.429 140.813,220.750 140.896 M157.083 202.230 C 157.404 202.314,157.929 202.314,158.250 202.230 C 158.571 202.146,158.308 202.077,157.667 202.077 C 157.025 202.077,156.762 202.146,157.083 202.230 M208.833 223.986 C 220.677 227.576,225.548 227.928,234.282 225.822 C 240.212 224.392,242.887 224.140,246.903 224.633 C 251.771 225.231,251.633 224.981,249.320 229.023 C 246.671 233.652,247.052 233.426,243.500 232.491 C 239.159 231.348,235.465 231.396,229.780 232.667 C 222.069 234.391,216.676 233.988,208.719 231.095 C 202.775 228.934,199.824 228.920,193.500 231.021 C 188.115 232.810,184.251 233.096,178.462 232.134 C 171.276 230.940,164.482 231.525,158.684 233.836 C 155.333 235.172,155.823 235.396,153.532 231.481 C 151.243 227.573,151.195 228.002,154.083 226.602 C 159.623 223.915,163.403 223.566,173.167 224.838 C 176.066 225.215,180.043 225.452,183.667 225.461 L 189.500 225.477 193.833 223.731 C 199.431 221.476,200.622 221.496,208.833 223.986 M215.187 242.622 C 222.512 245.110,225.183 245.309,231.106 243.805 C 234.800 242.868,236.093 242.901,238.569 243.996 C 240.333 244.777,240.338 244.655,238.417 247.859 L 236.833 250.500 232.167 250.520 C 229.600 250.532,226.525 250.718,225.333 250.935 C 221.215 251.683,219.136 251.476,213.758 249.782 C 202.881 246.357,201.588 246.318,192.348 249.134 L 186.195 251.008 178.514 250.921 L 170.833 250.833 168.757 251.750 C 166.027 252.955,166.285 253.065,164.356 249.870 C 162.091 246.121,162.114 245.958,165.083 244.727 C 169.823 242.763,171.154 242.493,175.333 242.652 C 177.442 242.732,182.242 242.790,186.000 242.782 L 192.833 242.766 196.833 241.556 C 203.200 239.628,207.031 239.851,215.187 242.622 M208.000 259.515 C 216.471 262.055,217.291 262.179,221.115 261.504 C 225.146 260.792,229.653 260.520,230.292 260.949 C 230.658 261.195,230.375 261.894,228.894 264.412 L 227.037 267.566 223.435 267.866 C 215.558 268.523,211.242 268.296,207.167 267.009 C 202.531 265.545,199.159 265.496,194.500 266.826 C 192.327 267.447,190.075 267.776,186.333 268.020 C 183.092 268.231,180.340 268.601,178.948 269.012 C 175.993 269.884,176.269 270.005,174.543 267.083 L 173.017 264.500 173.759 263.924 C 174.166 263.607,175.522 262.806,176.772 262.144 L 179.044 260.941 184.939 261.045 L 190.833 261.150 194.667 259.744 C 199.776 257.869,202.364 257.825,208.000 259.515 M205.727 277.369 C 208.160 278.000,208.966 278.048,213.635 277.840 C 217.123 277.684,219.142 277.728,219.773 277.971 L 220.712 278.334 219.273 281.010 C 218.481 282.481,217.533 284.047,217.167 284.490 L 216.500 285.294 210.833 284.456 C 202.133 283.169,199.356 283.372,192.543 285.789 C 189.634 286.822,187.126 287.667,186.971 287.667 C 186.703 287.667,183.249 282.038,182.803 280.875 C 182.371 279.748,185.779 278.665,191.423 278.135 C 194.215 277.873,197.325 277.452,198.333 277.199 C 200.980 276.537,202.665 276.575,205.727 277.369 M205.142 296.015 C 206.572 296.389,208.184 296.877,208.723 297.098 L 209.704 297.500 205.993 304.000 C 203.952 307.575,202.055 310.853,201.778 311.284 L 201.274 312.067 200.519 310.950 C 197.519 306.512,192.620 297.567,193.040 297.295 C 195.780 295.521,201.105 294.957,205.142 296.015 " stroke="none" fill="#0c449c" fill-rule="evenodd"></path><path id="path1" d="M218.952 29.603 C 218.801 32.934,219.648 32.635,211.667 32.177 C 207.908 31.962,204.766 31.839,204.683 31.905 C 204.267 32.233,203.571 54.735,203.969 54.981 C 204.197 55.122,206.509 55.339,209.108 55.464 C 211.707 55.590,214.629 55.783,215.601 55.894 L 217.368 56.096 217.137 60.048 C 216.946 63.307,216.987 64.004,217.369 64.025 C 217.625 64.038,219.933 64.241,222.500 64.475 C 228.105 64.985,227.756 65.241,227.938 60.475 L 228.086 56.607 233.126 56.817 C 235.899 56.932,238.642 57.100,239.224 57.190 C 240.663 57.413,240.548 57.937,241.491 46.909 C 242.560 34.402,242.563 34.010,241.583 33.967 C 241.171 33.949,238.283 33.762,235.167 33.551 L 229.500 33.167 229.404 30.448 L 229.307 27.729 227.404 27.538 C 226.357 27.434,224.054 27.253,222.287 27.137 L 219.074 26.926 218.952 29.603 M175.500 27.699 C 172.217 28.167,172.068 28.295,172.365 30.384 C 172.504 31.365,172.629 32.623,172.642 33.181 L 172.667 34.195 167.489 34.886 C 164.642 35.266,162.216 35.673,162.099 35.790 C 161.982 35.907,162.214 38.664,162.615 41.918 C 163.523 49.293,163.572 48.666,162.083 48.672 C 159.849 48.681,159.770 48.859,160.391 52.508 C 161.063 56.457,160.468 56.103,165.621 55.621 C 171.216 55.097,171.143 54.872,167.111 60.201 L 166.328 61.236 170.292 63.285 L 174.256 65.333 175.454 64.008 C 176.502 62.847,178.306 60.238,180.134 57.235 L 180.702 56.303 181.601 57.004 C 185.259 59.855,192.534 63.970,192.984 63.442 C 193.311 63.058,196.075 59.026,196.769 57.922 L 197.342 57.010 193.608 55.137 C 189.272 52.963,189.286 52.926,194.657 52.364 C 199.267 51.882,198.828 52.336,198.467 48.422 L 198.167 45.167 196.615 45.066 C 194.796 44.949,195.067 45.648,193.812 37.833 C 193.312 34.717,192.784 32.034,192.640 31.872 C 192.411 31.615,184.490 32.402,182.455 32.884 C 181.792 33.041,181.715 32.856,181.337 30.193 L 180.931 27.333 179.216 27.374 C 178.272 27.396,176.600 27.543,175.500 27.699 M128.275 33.775 C 123.900 35.076,124.260 34.447,125.193 39.167 C 125.627 41.367,125.987 43.328,125.992 43.526 C 125.996 43.723,123.683 44.534,120.851 45.328 C 114.206 47.192,114.696 46.667,116.018 50.503 C 117.370 54.423,117.084 54.301,121.829 52.987 C 123.955 52.398,125.793 52.015,125.914 52.136 C 126.278 52.500,125.046 56.589,123.292 60.833 C 122.383 63.033,121.353 65.533,121.002 66.388 L 120.365 67.943 124.184 69.472 C 126.285 70.312,128.088 71.000,128.192 71.000 C 128.483 71.000,132.447 62.524,133.653 59.324 L 134.725 56.481 141.779 60.002 C 150.165 64.187,154.046 65.791,154.412 65.224 C 154.906 64.457,157.376 57.931,157.227 57.783 C 157.144 57.700,154.246 56.228,150.788 54.513 C 145.245 51.763,139.453 48.432,139.735 48.156 C 139.789 48.102,142.430 47.312,145.603 46.398 C 148.777 45.485,151.438 44.673,151.516 44.595 C 151.679 44.432,149.808 38.367,149.419 37.795 C 149.242 37.535,147.218 37.960,142.667 39.214 C 139.093 40.198,136.124 40.890,136.070 40.752 C 136.016 40.613,135.329 38.775,134.545 36.667 C 132.867 32.156,133.201 32.311,128.275 33.775 M264.338 33.488 C 264.166 33.940,263.784 35.140,263.489 36.155 C 262.832 38.413,263.498 38.388,254.627 36.492 C 250.747 35.662,247.537 35.025,247.493 35.075 C 247.309 35.289,246.000 41.311,246.000 41.945 C 246.000 42.679,246.948 43.062,249.925 43.530 C 251.025 43.703,251.314 43.878,251.193 44.294 C 250.600 46.324,249.934 49.392,249.340 52.833 C 248.960 55.033,248.579 57.155,248.494 57.548 L 248.338 58.262 245.662 57.666 C 243.147 57.105,242.968 57.103,242.683 57.637 C 242.128 58.673,241.186 64.321,241.518 64.619 C 242.002 65.051,279.631 73.480,279.896 73.215 C 280.193 72.919,281.795 66.017,281.611 65.833 C 281.495 65.718,280.467 65.406,279.326 65.139 C 276.540 64.489,276.630 64.641,277.414 61.913 C 277.795 60.586,278.648 57.475,279.310 55.000 L 280.513 50.500 281.506 50.647 C 282.053 50.728,283.025 50.803,283.667 50.814 L 284.833 50.833 285.739 47.339 C 286.825 43.146,287.486 43.742,279.872 42.049 C 272.111 40.324,272.665 40.646,273.196 38.167 C 273.968 34.561,274.222 34.862,269.407 33.697 C 264.304 32.463,264.721 32.480,264.338 33.488 M100.167 39.453 C 93.633 41.931,92.231 42.588,92.427 43.081 C 93.944 46.895,93.604 46.720,96.831 45.358 C 98.103 44.821,99.268 44.460,99.421 44.554 C 99.949 44.881,98.972 45.596,96.983 46.340 C 95.884 46.751,94.912 47.206,94.822 47.352 C 94.688 47.568,95.831 50.941,96.143 51.254 C 96.192 51.303,97.232 50.965,98.456 50.504 C 102.401 49.020,103.125 49.923,99.333 51.598 C 98.050 52.165,97.000 52.792,97.000 52.992 C 97.000 53.383,98.602 56.667,98.793 56.667 C 98.856 56.667,99.967 56.230,101.262 55.696 C 103.655 54.709,104.004 54.702,103.995 55.639 C 103.992 55.997,102.779 56.661,100.220 57.704 L 96.450 59.241 95.258 58.630 C 93.934 57.950,93.931 57.821,95.150 53.833 C 95.430 52.917,95.661 52.128,95.663 52.081 C 95.665 52.033,94.363 51.392,92.770 50.656 C 91.177 49.920,89.834 49.279,89.787 49.231 C 89.739 49.183,90.052 47.762,90.482 46.072 C 90.912 44.382,91.227 43.000,91.182 43.000 C 91.138 43.000,90.066 43.424,88.801 43.942 C 86.716 44.795,86.099 45.334,85.589 46.745 C 85.540 46.880,84.941 46.818,84.258 46.608 C 83.153 46.268,82.773 46.330,80.804 47.167 L 78.591 48.107 79.379 48.704 C 79.812 49.032,81.104 49.700,82.250 50.188 C 84.639 51.205,84.567 50.976,83.620 54.587 C 83.222 56.102,82.958 57.386,83.032 57.441 C 83.106 57.496,84.367 58.075,85.833 58.727 L 88.500 59.913 88.421 61.175 C 88.322 62.736,88.633 62.482,84.945 64.014 C 82.146 65.175,81.793 65.252,81.427 64.770 C 80.884 64.054,80.995 63.940,82.969 63.177 C 84.940 62.414,84.921 62.479,83.828 60.322 C 82.898 58.488,82.820 58.454,81.115 59.167 C 80.457 59.442,79.637 59.667,79.293 59.667 C 78.191 59.667,78.623 58.733,79.917 58.315 C 82.448 57.499,82.427 57.539,81.423 55.492 C 80.425 53.457,80.414 53.453,78.208 54.204 C 77.340 54.500,76.545 54.656,76.441 54.552 C 76.005 54.116,76.685 53.434,77.981 53.006 C 79.817 52.400,79.840 52.319,78.762 50.198 L 77.833 48.371 72.396 50.484 C 69.406 51.645,66.871 52.684,66.764 52.792 C 66.357 53.199,83.863 88.999,84.471 89.001 C 85.237 89.005,91.667 86.242,91.667 85.909 C 91.667 85.717,90.187 82.321,88.380 78.363 C 86.572 74.405,84.992 70.848,84.870 70.458 C 84.665 69.802,85.269 69.492,92.907 66.334 C 97.450 64.456,102.367 62.423,103.833 61.816 C 105.300 61.209,106.543 60.814,106.596 60.939 C 106.648 61.064,108.154 64.767,109.942 69.167 C 113.676 78.356,112.952 77.729,117.547 75.747 C 120.172 74.614,120.494 74.382,120.442 73.653 C 120.356 72.426,105.633 37.665,105.203 37.675 C 105.000 37.680,102.733 38.480,100.167 39.453 M295.570 40.917 C 294.642 42.998,287.274 60.848,283.980 68.995 C 282.857 71.774,281.993 74.104,282.060 74.171 C 282.239 74.350,299.034 81.782,309.588 86.353 L 318.676 90.289 319.301 89.061 C 320.270 87.159,328.223 69.633,331.657 61.833 C 333.352 57.983,334.796 54.738,334.866 54.621 C 334.936 54.504,333.532 53.813,331.746 53.085 C 312.521 45.241,297.013 39.000,296.749 39.000 C 296.570 39.000,296.040 39.862,295.570 40.917 M185.491 40.750 C 185.840 42.292,186.312 45.799,186.187 45.924 C 186.116 45.995,185.332 46.079,184.445 46.110 L 182.833 46.167 182.736 43.362 C 182.630 40.322,182.783 40.014,184.410 40.005 C 185.084 40.001,185.365 40.195,185.491 40.750 M218.038 40.617 C 218.150 40.736,218.169 42.221,218.080 43.917 C 217.896 47.420,218.138 47.231,214.417 46.784 L 212.667 46.574 212.667 45.336 C 212.667 44.655,212.760 43.209,212.873 42.124 L 213.079 40.149 215.456 40.275 C 216.764 40.344,217.925 40.498,218.038 40.617 M232.414 41.213 C 233.625 41.414,233.656 41.455,233.507 42.626 C 233.422 43.290,233.265 44.812,233.158 46.007 L 232.963 48.181 231.565 48.076 C 228.518 47.847,228.667 48.028,228.667 44.549 C 228.667 40.687,228.755 40.609,232.414 41.213 M173.667 44.327 C 173.667 47.224,173.640 47.327,172.852 47.525 C 171.605 47.838,171.408 47.527,171.156 44.838 C 170.862 41.699,171.001 41.333,172.490 41.333 L 173.667 41.333 173.667 44.327 M266.109 47.142 C 268.827 47.764,271.114 48.336,271.192 48.414 C 271.540 48.762,267.843 61.227,267.182 61.933 C 266.795 62.347,265.092 62.067,258.398 60.492 C 257.481 60.276,257.505 59.968,259.034 52.218 C 259.975 47.453,260.420 45.994,260.928 46.006 C 261.059 46.009,263.391 46.520,266.109 47.142 M315.560 52.707 L 327.287 57.364 326.820 58.481 C 325.903 60.676,317.573 78.869,316.626 80.746 L 315.661 82.659 314.247 82.097 C 310.238 80.504,289.202 71.335,288.928 71.061 C 288.725 70.858,290.578 66.308,294.015 58.569 L 299.420 46.396 301.627 47.224 C 302.840 47.679,309.110 50.146,315.560 52.707 M298.171 50.919 C 297.045 53.377,296.671 53.038,303.675 55.907 C 307.062 57.294,309.870 58.456,309.914 58.490 C 310.355 58.822,306.144 68.000,305.550 68.000 C 304.808 68.000,303.484 71.211,303.980 71.809 C 304.314 72.212,304.285 72.639,303.833 74.000 C 303.360 75.424,303.342 75.777,303.719 76.239 C 304.336 76.993,313.579 81.399,314.268 81.266 C 314.776 81.169,316.564 78.439,316.286 78.185 C 316.220 78.125,314.629 77.308,312.750 76.369 C 309.368 74.678,308.053 73.318,310.250 73.783 C 316.503 75.106,316.244 75.239,319.176 69.184 C 321.774 63.820,321.753 64.205,319.487 63.357 C 316.774 62.342,316.773 62.343,315.281 65.583 C 313.654 69.117,313.244 69.621,312.158 69.413 C 311.057 69.203,311.091 68.973,312.846 64.785 C 314.782 60.164,314.305 60.375,318.821 62.141 C 323.892 64.123,323.905 64.120,324.517 60.862 C 324.730 59.727,324.688 59.654,323.720 59.461 C 322.760 59.269,322.693 59.155,322.599 57.572 L 322.500 55.888 320.833 55.303 C 318.517 54.490,318.333 54.517,318.333 55.667 C 318.333 56.399,318.177 56.665,317.750 56.662 C 316.665 56.652,316.226 56.156,316.632 55.398 C 317.225 54.290,317.080 54.011,315.583 53.370 C 312.868 52.207,312.750 52.205,312.184 53.299 L 311.667 54.299 310.417 53.771 C 309.729 53.481,306.885 52.300,304.096 51.148 L 299.024 49.054 298.171 50.919 M90.328 54.637 C 90.317 55.830,89.786 56.155,88.851 55.542 C 88.371 55.228,88.035 54.865,88.105 54.735 C 88.174 54.606,88.324 54.238,88.437 53.919 C 88.700 53.180,90.336 53.801,90.328 54.637 M294.808 59.490 C 293.609 62.001,292.675 64.287,292.731 64.569 C 292.862 65.229,302.664 69.803,303.072 69.395 C 303.235 69.232,304.336 66.938,305.518 64.299 C 308.034 58.680,308.336 59.435,302.603 57.014 C 296.509 54.440,297.346 54.174,294.808 59.490 M302.667 61.401 C 302.667 61.923,301.328 64.333,301.038 64.333 C 300.883 64.333,299.982 64.012,299.037 63.619 C 297.178 62.847,297.190 62.890,298.201 60.468 L 298.657 59.379 300.662 60.244 C 301.764 60.720,302.667 61.241,302.667 61.401 M97.000 65.629 C 86.602 69.845,86.577 69.858,86.857 70.743 C 87.507 72.795,88.372 74.389,88.753 74.235 C 92.650 72.654,94.708 71.930,94.863 72.085 C 95.398 72.620,94.092 73.630,91.384 74.776 C 88.024 76.198,88.030 76.185,89.708 78.900 L 90.372 79.975 92.019 79.321 C 92.925 78.961,94.394 78.378,95.283 78.025 L 96.900 77.382 97.419 78.472 L 97.939 79.561 95.303 80.638 C 92.399 81.826,92.443 81.762,93.203 83.660 C 93.877 85.344,93.282 85.438,100.600 82.482 C 108.125 79.443,107.575 79.985,106.152 77.015 C 104.818 74.233,104.740 74.420,107.756 73.166 C 110.246 72.131,110.242 72.143,108.950 69.583 C 108.202 68.100,108.470 68.137,105.937 69.166 C 103.424 70.187,103.328 70.112,104.669 68.163 L 105.736 66.613 105.081 64.890 C 104.220 62.622,104.473 62.598,97.000 65.629 M290.714 68.038 C 289.832 70.161,289.388 69.751,295.833 72.767 L 301.167 75.263 301.912 73.715 C 303.010 71.436,303.069 71.504,297.765 68.979 C 291.219 65.862,291.597 65.913,290.714 68.038 M167.795 73.333 C 167.795 75.625,167.848 76.563,167.913 75.417 C 167.979 74.271,167.979 72.396,167.913 71.250 C 167.848 70.104,167.795 71.042,167.795 73.333 M231.795 73.333 C 231.795 75.625,231.848 76.563,231.913 75.417 C 231.979 74.271,231.979 72.396,231.913 71.250 C 231.848 70.104,231.795 71.042,231.795 73.333 M141.128 88.333 C 141.128 90.625,141.182 91.563,141.247 90.417 C 141.312 89.271,141.312 87.396,141.247 86.250 C 141.182 85.104,141.128 86.042,141.128 88.333 M258.462 88.333 C 258.462 90.625,258.515 91.563,258.580 90.417 C 258.645 89.271,258.645 87.396,258.580 86.250 C 258.515 85.104,258.462 86.042,258.462 88.333 M104.120 108.667 C 104.120 110.408,104.176 111.121,104.245 110.250 C 104.314 109.379,104.314 107.954,104.245 107.083 C 104.176 106.212,104.120 106.925,104.120 108.667 M104.136 127.500 C 104.136 130.617,104.186 131.937,104.248 130.433 C 104.309 128.930,104.310 126.380,104.248 124.766 C 104.187 123.153,104.137 124.383,104.136 127.500 M123.930 164.914 C 125.083 164.979,126.883 164.979,127.930 164.913 C 128.977 164.847,128.033 164.793,125.833 164.794 C 123.633 164.795,122.777 164.849,123.930 164.914 M271.254 164.902 C 271.669 164.982,272.269 164.979,272.587 164.896 C 272.906 164.812,272.567 164.747,271.833 164.751 C 271.100 164.754,270.839 164.823,271.254 164.902 M154.083 202.239 C 154.587 202.315,155.412 202.315,155.917 202.239 C 156.421 202.162,156.008 202.100,155.000 202.100 C 153.992 202.100,153.579 202.162,154.083 202.239 M161.917 210.902 C 162.329 210.981,163.004 210.981,163.417 210.902 C 163.829 210.822,163.492 210.757,162.667 210.757 C 161.842 210.757,161.504 210.822,161.917 210.902 M223.256 214.575 C 223.855 214.649,224.755 214.648,225.256 214.572 C 225.757 214.495,225.267 214.435,224.167 214.437 C 223.067 214.438,222.657 214.501,223.256 214.575 M223.909 227.241 C 224.501 227.314,225.551 227.315,226.243 227.243 C 226.934 227.171,226.450 227.111,225.167 227.109 C 223.883 227.108,223.317 227.167,223.909 227.241 " stroke="none" fill="#db062b" fill-rule="evenodd"></path><path id="path2" d="M168.000 73.333 L 168.000 77.333 161.333 77.333 L 154.667 77.333 154.667 80.667 L 154.667 84.000 148.000 84.000 L 141.333 84.000 141.333 88.167 L 141.333 92.333 115.826 92.333 L 90.319 92.333 90.410 98.917 L 90.500 105.500 97.417 105.590 L 104.333 105.680 104.333 108.840 L 104.333 112.000 112.667 112.000 L 121.000 112.000 121.000 116.833 L 121.000 121.667 112.667 121.667 L 104.333 121.667 104.333 127.500 L 104.333 133.333 117.000 133.333 L 129.667 133.333 129.667 149.161 L 129.667 164.988 121.854 165.077 L 114.041 165.167 117.270 170.743 L 120.500 176.318 125.083 176.326 L 129.667 176.333 129.667 184.039 L 129.667 191.746 134.046 199.123 C 136.454 203.180,138.473 206.556,138.532 206.625 C 138.592 206.695,140.033 206.145,141.737 205.405 C 151.545 201.142,156.210 200.958,167.065 204.406 C 175.029 206.935,177.397 206.892,188.500 204.017 L 196.500 201.945 200.667 202.107 C 204.421 202.252,205.509 202.454,211.667 204.142 C 223.170 207.296,228.344 207.391,240.333 204.667 C 248.712 202.763,249.476 202.793,262.333 205.533 C 263.111 205.699,263.412 205.291,266.824 199.439 L 270.481 193.167 270.607 184.750 L 270.733 176.333 275.450 176.331 L 280.167 176.329 283.064 171.248 C 284.657 168.453,286.061 165.904,286.183 165.583 C 286.390 165.038,285.892 165.000,278.536 165.000 L 270.667 165.000 270.667 149.167 L 270.667 133.333 283.500 133.333 L 296.333 133.333 296.333 127.500 L 296.333 121.667 287.833 121.667 L 279.333 121.667 279.333 116.833 L 279.333 112.000 287.833 112.000 L 296.333 112.000 296.333 108.840 L 296.333 105.680 303.250 105.590 L 310.167 105.500 310.257 98.917 L 310.347 92.333 284.340 92.333 L 258.333 92.333 258.333 88.167 L 258.333 84.000 251.667 84.000 L 245.000 84.000 245.000 80.667 L 245.000 77.333 238.333 77.333 L 231.667 77.333 231.667 73.333 L 231.667 69.333 199.833 69.333 L 168.000 69.333 168.000 73.333 M227.408 117.250 L 227.500 122.167 231.917 122.260 L 236.333 122.353 236.333 145.676 L 236.333 169.000 234.189 169.000 L 232.045 169.000 230.459 165.991 C 226.087 157.700,218.324 151.288,209.250 148.473 L 207.333 147.878 207.333 144.439 L 207.333 141.000 213.583 140.959 C 217.021 140.936,220.883 140.823,222.167 140.709 L 224.500 140.500 219.000 136.335 C 212.133 131.136,205.170 125.956,202.325 123.930 L 200.150 122.382 190.143 129.941 C 184.639 134.098,179.277 138.175,178.226 139.000 L 176.315 140.500 177.741 140.725 C 178.525 140.849,182.435 140.962,186.429 140.975 L 193.691 141.000 193.595 144.238 L 193.500 147.476 192.167 147.766 C 181.393 150.108,171.785 157.654,167.360 167.250 L 166.553 169.000 164.610 169.000 L 162.667 169.000 162.667 145.667 L 162.667 122.333 167.833 122.333 L 173.000 122.333 173.000 117.333 L 173.000 112.333 200.158 112.333 L 227.316 112.333 227.408 117.250 M149.667 165.792 L 149.667 198.251 146.583 198.961 C 144.887 199.352,143.313 199.670,143.083 199.669 C 142.753 199.667,142.667 192.810,142.667 166.500 L 142.667 133.333 146.167 133.333 L 149.667 133.333 149.667 165.792 M257.667 166.167 L 257.667 199.000 253.500 199.000 L 249.333 199.000 249.333 166.167 L 249.333 133.333 253.500 133.333 L 257.667 133.333 257.667 166.167 M176.000 186.667 L 176.000 189.333 169.333 189.333 L 162.667 189.333 162.667 186.667 L 162.667 184.000 169.333 184.000 L 176.000 184.000 176.000 186.667 M206.333 186.667 L 206.333 189.333 199.167 189.333 L 192.000 189.333 192.000 186.667 L 192.000 184.000 199.167 184.000 L 206.333 184.000 206.333 186.667 M236.333 186.667 L 236.333 189.333 229.167 189.333 L 222.000 189.333 222.000 186.667 L 222.000 184.000 229.167 184.000 L 236.333 184.000 236.333 186.667 " stroke="none" fill="#040404" fill-rule="evenodd"></path><path id="path3" d="M27.806 19.083 C 29.405 21.735,69.571 89.783,96.423 135.333 C 105.772 151.192,113.612 164.372,113.845 164.623 C 114.195 164.999,115.643 165.036,121.969 164.834 L 129.667 164.589 129.667 148.965 L 129.667 133.341 116.917 133.254 L 104.167 133.167 104.167 127.500 L 104.167 121.833 112.583 121.744 L 121.000 121.655 121.000 116.833 L 121.000 112.011 112.583 111.922 L 104.167 111.833 104.071 108.750 L 103.975 105.667 97.154 105.667 L 90.333 105.667 90.333 99.000 L 90.333 92.333 115.656 92.333 L 140.979 92.333 141.073 88.250 L 141.167 84.167 147.917 84.076 L 154.667 83.986 154.667 80.660 L 154.667 77.333 161.167 77.333 L 167.667 77.333 167.667 73.333 L 167.667 69.333 199.833 69.333 L 232.000 69.333 232.000 73.333 L 232.000 77.333 238.500 77.333 L 245.000 77.333 245.000 80.660 L 245.000 83.986 251.750 84.076 L 258.500 84.167 258.594 88.250 L 258.687 92.333 284.510 92.333 L 310.333 92.333 310.333 99.000 L 310.333 105.667 303.333 105.667 L 296.333 105.667 296.333 108.833 L 296.333 112.000 287.833 112.000 L 279.333 112.000 279.333 116.833 L 279.333 121.667 287.833 121.667 L 296.333 121.667 296.333 127.500 L 296.333 133.333 283.500 133.333 L 270.667 133.333 270.667 148.954 L 270.667 164.574 272.417 164.784 C 273.379 164.900,276.964 164.996,280.382 164.997 L 286.598 165.000 289.250 160.417 C 333.353 84.199,372.000 17.148,372.000 16.849 C 372.000 16.749,294.228 16.667,199.174 16.667 L 26.348 16.667 27.806 19.083 M227.404 27.538 L 229.307 27.729 229.404 30.448 L 229.500 33.167 235.167 33.551 C 238.283 33.762,241.171 33.949,241.583 33.967 C 242.563 34.010,242.560 34.402,241.491 46.909 C 240.548 57.937,240.663 57.413,239.224 57.190 C 238.642 57.100,235.899 56.932,233.126 56.817 L 228.086 56.607 227.938 60.475 C 227.756 65.241,228.105 64.985,222.500 64.475 C 219.933 64.241,217.625 64.038,217.369 64.025 C 216.987 64.004,216.946 63.307,217.137 60.048 L 217.368 56.096 215.601 55.894 C 214.629 55.783,211.707 55.590,209.108 55.464 C 206.509 55.339,204.197 55.122,203.969 54.981 C 203.571 54.735,204.267 32.233,204.683 31.905 C 204.766 31.839,207.908 31.962,211.667 32.177 C 219.648 32.635,218.801 32.934,218.952 29.603 L 219.074 26.926 222.287 27.137 C 224.054 27.253,226.357 27.434,227.404 27.538 M181.337 30.193 C 181.715 32.856,181.792 33.041,182.455 32.884 C 184.490 32.402,192.411 31.615,192.640 31.872 C 192.784 32.034,193.312 34.717,193.812 37.833 C 195.067 45.648,194.796 44.949,196.615 45.066 L 198.167 45.167 198.467 48.422 C 198.828 52.336,199.267 51.882,194.657 52.364 C 189.286 52.926,189.272 52.963,193.608 55.137 L 197.342 57.010 196.769 57.922 C 196.075 59.026,193.311 63.058,192.984 63.442 C 192.534 63.970,185.259 59.855,181.601 57.004 L 180.702 56.303 180.134 57.235 C 178.306 60.238,176.502 62.847,175.454 64.008 L 174.256 65.333 170.292 63.285 L 166.328 61.236 167.111 60.201 C 171.143 54.872,171.216 55.097,165.621 55.621 C 160.468 56.103,161.063 56.457,160.391 52.508 C 159.770 48.859,159.849 48.681,162.083 48.672 C 163.572 48.666,163.523 49.293,162.615 41.918 C 162.214 38.664,161.982 35.907,162.099 35.790 C 162.216 35.673,164.642 35.266,167.489 34.886 L 172.667 34.195 172.642 33.181 C 172.629 32.623,172.504 31.365,172.365 30.384 C 172.041 28.106,173.393 27.512,179.216 27.374 L 180.931 27.333 181.337 30.193 M134.545 36.667 C 135.329 38.775,136.016 40.613,136.070 40.752 C 136.124 40.890,139.093 40.198,142.667 39.214 C 147.218 37.960,149.242 37.535,149.419 37.795 C 149.808 38.367,151.679 44.432,151.516 44.595 C 151.438 44.673,148.777 45.485,145.603 46.398 C 142.430 47.312,139.789 48.102,139.735 48.156 C 139.453 48.432,145.245 51.763,150.788 54.513 C 154.246 56.228,157.144 57.700,157.227 57.783 C 157.376 57.931,154.906 64.457,154.412 65.224 C 154.046 65.791,150.165 64.187,141.779 60.002 L 134.725 56.481 133.653 59.324 C 132.447 62.524,128.483 71.000,128.192 71.000 C 128.088 71.000,126.285 70.312,124.184 69.472 L 120.365 67.943 121.002 66.388 C 121.353 65.533,122.383 63.033,123.292 60.833 C 125.046 56.589,126.278 52.500,125.914 52.136 C 125.793 52.015,123.955 52.398,121.829 52.987 C 117.084 54.301,117.370 54.423,116.018 50.503 C 114.696 46.667,114.206 47.192,120.851 45.328 C 123.683 44.534,125.996 43.723,125.992 43.526 C 125.987 43.328,125.627 41.367,125.193 39.167 C 124.260 34.447,123.900 35.076,128.275 33.775 C 133.201 32.311,132.867 32.156,134.545 36.667 M269.407 33.697 C 274.222 34.862,273.968 34.561,273.196 38.167 C 272.665 40.646,272.111 40.324,279.872 42.049 C 287.486 43.742,286.825 43.146,285.739 47.339 L 284.833 50.833 283.667 50.814 C 283.025 50.803,282.053 50.728,281.506 50.647 L 280.513 50.500 279.310 55.000 C 278.648 57.475,277.795 60.586,277.414 61.913 C 276.630 64.641,276.540 64.489,279.326 65.139 C 280.467 65.406,281.495 65.718,281.611 65.833 C 281.795 66.017,280.193 72.919,279.896 73.215 C 279.631 73.480,242.002 65.051,241.518 64.619 C 241.186 64.321,242.128 58.673,242.683 57.637 C 242.968 57.103,243.147 57.105,245.662 57.666 L 248.338 58.262 248.494 57.548 C 248.579 57.155,248.960 55.033,249.340 52.833 C 249.934 49.392,250.600 46.324,251.193 44.294 C 251.314 43.878,251.025 43.703,249.925 43.530 C 246.948 43.062,246.000 42.679,246.000 41.945 C 246.000 41.311,247.309 35.289,247.493 35.075 C 247.537 35.025,250.747 35.662,254.627 36.492 C 263.498 38.388,262.832 38.413,263.489 36.155 C 264.233 33.597,264.609 32.667,264.898 32.667 C 265.035 32.667,267.064 33.130,269.407 33.697 M112.979 55.250 C 121.768 76.117,121.322 74.118,117.547 75.747 C 112.952 77.729,113.676 78.356,109.942 69.167 C 108.154 64.767,106.648 61.064,106.596 60.939 C 106.543 60.814,105.300 61.209,103.833 61.816 C 102.367 62.423,97.450 64.456,92.907 66.334 C 85.269 69.492,84.665 69.802,84.870 70.458 C 84.992 70.848,86.572 74.405,88.380 78.363 C 90.187 82.321,91.667 85.717,91.667 85.909 C 91.667 86.242,85.237 89.005,84.471 89.001 C 83.863 88.999,66.357 53.199,66.764 52.792 C 66.871 52.684,69.406 51.645,72.396 50.484 L 77.833 48.371 78.762 50.198 C 79.840 52.319,79.817 52.400,77.981 53.006 C 76.685 53.434,76.005 54.116,76.441 54.552 C 76.545 54.656,77.340 54.500,78.208 54.204 C 80.414 53.453,80.425 53.457,81.423 55.492 C 82.427 57.539,82.448 57.499,79.917 58.315 C 78.623 58.733,78.191 59.667,79.293 59.667 C 79.637 59.667,80.457 59.442,81.115 59.167 C 82.820 58.454,82.898 58.488,83.828 60.322 C 84.921 62.479,84.940 62.414,82.969 63.177 C 80.995 63.940,80.884 64.054,81.427 64.770 C 81.793 65.252,82.146 65.175,84.945 64.014 C 88.633 62.482,88.322 62.736,88.421 61.175 L 88.500 59.913 85.833 58.727 C 84.367 58.075,83.106 57.496,83.032 57.441 C 82.958 57.386,83.222 56.102,83.620 54.587 C 84.567 50.976,84.639 51.205,82.250 50.188 C 81.104 49.700,79.812 49.032,79.379 48.704 L 78.591 48.107 80.804 47.167 C 82.773 46.330,83.153 46.268,84.258 46.608 C 84.941 46.818,85.540 46.880,85.589 46.745 C 86.099 45.334,86.716 44.795,88.801 43.942 C 90.066 43.424,91.138 43.000,91.182 43.000 C 91.227 43.000,90.912 44.382,90.482 46.072 C 90.052 47.762,89.739 49.183,89.787 49.231 C 89.834 49.279,91.177 49.920,92.770 50.656 C 94.363 51.392,95.665 52.033,95.663 52.081 C 95.661 52.128,95.430 52.917,95.150 53.833 C 93.931 57.821,93.934 57.950,95.258 58.630 L 96.450 59.241 100.220 57.704 C 102.779 56.661,103.992 55.997,103.995 55.639 C 104.004 54.702,103.655 54.709,101.262 55.696 C 99.967 56.230,98.856 56.667,98.793 56.667 C 98.602 56.667,97.000 53.383,97.000 52.992 C 97.000 52.792,98.050 52.165,99.333 51.598 C 103.125 49.923,102.401 49.020,98.456 50.504 C 97.232 50.965,96.192 51.303,96.143 51.254 C 95.831 50.941,94.688 47.568,94.822 47.352 C 94.912 47.206,95.884 46.751,96.983 46.340 C 98.972 45.596,99.949 44.881,99.421 44.554 C 99.268 44.460,98.103 44.821,96.831 45.358 C 93.604 46.720,93.944 46.895,92.427 43.081 C 92.325 42.824,92.888 42.383,93.880 41.942 C 96.201 40.912,104.764 37.685,105.203 37.675 C 105.407 37.670,108.906 45.579,112.979 55.250 M312.787 45.380 C 321.429 48.889,329.961 52.356,331.746 53.085 C 333.532 53.813,334.936 54.504,334.866 54.621 C 334.796 54.738,333.352 57.983,331.657 61.833 C 328.223 69.633,320.270 87.159,319.301 89.061 L 318.676 90.289 309.588 86.353 C 299.034 81.782,282.239 74.350,282.060 74.171 C 281.685 73.796,296.218 39.000,296.749 39.000 C 296.928 39.000,304.145 41.871,312.787 45.380 M183.069 40.284 C 182.759 40.480,182.665 41.343,182.736 43.362 L 182.833 46.167 184.445 46.110 C 185.332 46.079,186.116 45.995,186.187 45.924 C 186.312 45.799,185.840 42.292,185.491 40.750 C 185.313 39.966,183.976 39.708,183.069 40.284 M212.873 42.124 C 212.760 43.209,212.667 44.655,212.667 45.336 L 212.667 46.574 214.417 46.784 C 218.138 47.231,217.896 47.420,218.080 43.917 C 218.274 40.235,218.415 40.432,215.456 40.275 L 213.079 40.149 212.873 42.124 M228.889 41.222 C 228.767 41.344,228.667 42.842,228.667 44.549 C 228.667 48.028,228.518 47.847,231.565 48.076 L 232.963 48.181 233.158 46.007 C 233.265 44.812,233.422 43.290,233.507 42.626 C 233.656 41.455,233.625 41.414,232.414 41.213 C 230.769 40.942,229.165 40.946,228.889 41.222 M171.118 41.841 C 170.836 42.575,171.330 47.292,171.714 47.529 C 173.065 48.365,173.667 47.379,173.667 44.327 L 173.667 41.333 172.490 41.333 C 171.743 41.333,171.241 41.519,171.118 41.841 M260.350 46.635 C 260.010 47.271,258.245 55.791,257.843 58.739 C 257.646 60.189,257.689 60.325,258.398 60.492 C 265.092 62.067,266.795 62.347,267.182 61.933 C 267.843 61.227,271.540 48.762,271.192 48.414 C 271.056 48.279,261.419 46.017,260.928 46.006 C 260.797 46.003,260.537 46.286,260.350 46.635 M294.015 58.569 C 290.578 66.308,288.725 70.858,288.928 71.061 C 289.202 71.335,310.238 80.504,314.247 82.097 L 315.661 82.659 316.626 80.746 C 317.573 78.869,325.903 60.676,326.820 58.481 L 327.287 57.364 315.560 52.707 C 309.110 50.146,302.840 47.679,301.627 47.224 L 299.420 46.396 294.015 58.569 M310.417 53.771 L 311.667 54.299 312.184 53.299 C 312.750 52.205,312.868 52.207,315.583 53.370 C 317.080 54.011,317.225 54.290,316.632 55.398 C 316.226 56.156,316.665 56.652,317.750 56.662 C 318.177 56.665,318.333 56.399,318.333 55.667 C 318.333 54.517,318.517 54.490,320.833 55.303 L 322.500 55.888 322.599 57.572 C 322.693 59.155,322.760 59.269,323.720 59.461 C 324.688 59.654,324.730 59.727,324.517 60.862 C 323.905 64.120,323.892 64.123,318.821 62.141 C 314.305 60.375,314.782 60.164,312.846 64.785 C 311.091 68.973,311.057 69.203,312.158 69.413 C 313.244 69.621,313.654 69.117,315.281 65.583 C 316.773 62.343,316.774 62.342,319.487 63.357 C 321.753 64.205,321.774 63.820,319.176 69.184 C 316.244 75.239,316.503 75.106,310.250 73.783 C 308.053 73.318,309.368 74.678,312.750 76.369 C 314.629 77.308,316.220 78.125,316.286 78.185 C 316.564 78.439,314.776 81.169,314.268 81.266 C 313.579 81.399,304.336 76.993,303.719 76.239 C 303.342 75.777,303.360 75.424,303.833 74.000 C 304.285 72.639,304.314 72.212,303.980 71.809 C 303.484 71.211,304.808 68.000,305.550 68.000 C 306.144 68.000,310.355 58.822,309.914 58.490 C 309.870 58.456,307.062 57.294,303.675 55.907 C 296.671 53.038,297.045 53.377,298.171 50.919 L 299.024 49.054 304.096 51.148 C 306.885 52.300,309.729 53.481,310.417 53.771 M88.437 53.919 C 88.324 54.238,88.174 54.606,88.105 54.735 C 88.035 54.865,88.371 55.228,88.851 55.542 C 89.786 56.155,90.317 55.830,90.328 54.637 C 90.336 53.801,88.700 53.180,88.437 53.919 M302.603 57.014 C 308.336 59.435,308.034 58.680,305.518 64.299 C 304.336 66.938,303.235 69.232,303.072 69.395 C 302.664 69.803,292.862 65.229,292.731 64.569 C 292.675 64.287,293.609 62.001,294.808 59.490 C 297.346 54.174,296.509 54.440,302.603 57.014 M298.201 60.468 C 297.190 62.890,297.178 62.847,299.037 63.619 C 301.262 64.544,301.207 64.555,301.993 63.013 C 302.915 61.206,302.922 61.219,300.662 60.244 L 298.657 59.379 298.201 60.468 M105.081 64.890 L 105.736 66.613 104.669 68.163 C 103.328 70.112,103.424 70.187,105.937 69.166 C 108.470 68.137,108.202 68.100,108.950 69.583 C 110.242 72.143,110.246 72.131,107.756 73.166 C 104.740 74.420,104.818 74.233,106.152 77.015 C 107.575 79.985,108.125 79.443,100.600 82.482 C 93.282 85.438,93.877 85.344,93.203 83.660 C 92.443 81.762,92.399 81.826,95.303 80.638 L 97.939 79.561 97.419 78.472 L 96.900 77.382 95.283 78.025 C 94.394 78.378,92.925 78.961,92.019 79.321 L 90.372 79.975 89.708 78.900 C 88.030 76.185,88.024 76.198,91.384 74.776 C 94.092 73.630,95.398 72.620,94.863 72.085 C 94.708 71.930,92.650 72.654,88.753 74.235 C 88.372 74.389,87.507 72.795,86.857 70.743 C 86.577 69.858,86.602 69.845,97.000 65.629 C 104.473 62.598,104.220 62.622,105.081 64.890 M297.765 68.979 C 303.069 71.504,303.010 71.436,301.912 73.715 L 301.167 75.263 295.833 72.767 C 289.388 69.751,289.832 70.161,290.714 68.038 C 291.597 65.913,291.219 65.862,297.765 68.979 M173.000 117.333 L 173.000 122.333 167.833 122.333 L 162.667 122.333 162.667 145.667 L 162.667 169.000 164.594 169.000 L 166.520 169.000 167.795 166.417 C 172.136 157.618,180.815 150.606,190.345 148.199 L 193.500 147.402 193.595 144.201 L 193.691 141.000 185.429 140.995 C 175.638 140.989,175.565 140.966,178.372 138.794 C 190.575 129.348,200.180 122.406,200.676 122.672 C 201.433 123.077,222.652 138.912,223.600 139.779 C 224.775 140.855,224.108 140.950,215.250 140.977 L 207.333 141.000 207.333 144.434 L 207.333 147.869 209.750 148.637 C 218.866 151.536,226.494 158.042,230.792 166.583 L 232.008 169.000 234.171 169.000 L 236.333 169.000 236.333 145.667 L 236.333 122.333 231.833 122.333 L 227.333 122.333 227.333 117.333 L 227.333 112.333 200.167 112.333 L 173.000 112.333 173.000 117.333 M142.667 166.500 C 142.667 184.742,142.778 199.667,142.913 199.667 C 143.049 199.667,144.624 199.336,146.413 198.933 L 149.667 198.199 149.667 165.766 L 149.667 133.333 146.167 133.333 L 142.667 133.333 142.667 166.500 M249.333 166.083 L 249.334 198.833 253.333 198.854 L 257.333 198.875 257.333 166.104 L 257.333 133.333 253.333 133.333 L 249.333 133.333 249.333 166.083 M121.149 176.917 C 121.270 177.237,123.123 180.473,125.267 184.106 C 129.846 191.864,129.586 191.945,129.633 182.750 L 129.667 176.333 125.298 176.333 C 121.275 176.333,120.946 176.380,121.149 176.917 M270.670 184.417 L 270.674 192.500 272.541 189.333 C 276.192 183.140,279.667 176.954,279.667 176.646 C 279.667 176.467,277.746 176.333,275.167 176.333 L 270.667 176.333 270.670 184.417 M162.667 186.667 L 162.667 189.333 169.333 189.333 L 176.000 189.333 176.000 186.667 L 176.000 184.000 169.333 184.000 L 162.667 184.000 162.667 186.667 M192.000 186.667 L 192.000 189.333 199.167 189.333 L 206.333 189.333 206.333 186.667 L 206.333 184.000 199.167 184.000 L 192.000 184.000 192.000 186.667 M222.000 186.667 L 222.000 189.333 229.167 189.333 L 236.333 189.333 236.333 186.667 L 236.333 184.000 229.167 184.000 L 222.000 184.000 222.000 186.667 " stroke="none" fill="#fbe304" fill-rule="evenodd"></path><path id="path4" d="M196.000 202.216 C 195.542 202.305,191.942 203.226,188.000 204.262 C 181.058 206.085,180.697 206.145,176.500 206.145 L 172.167 206.146 166.667 204.347 L 161.167 202.549 156.103 202.412 C 150.307 202.254,147.542 202.831,142.149 205.323 C 138.792 206.874,138.834 206.588,141.350 210.795 C 144.486 216.036,143.741 215.657,147.780 214.067 C 157.284 210.327,161.589 210.038,172.167 212.429 C 177.370 213.605,178.720 213.788,182.333 213.809 L 186.500 213.833 191.667 212.011 C 198.831 209.484,201.096 209.446,207.667 211.744 C 216.213 214.732,224.967 215.169,233.938 213.053 C 243.134 210.884,245.643 210.896,253.567 213.146 L 257.500 214.263 258.170 213.476 C 258.797 212.741,262.333 206.312,262.333 205.909 C 262.333 205.658,255.751 204.112,252.667 203.637 C 249.223 203.108,246.026 203.399,240.167 204.774 C 228.164 207.593,222.671 207.418,209.970 203.812 C 204.533 202.268,198.974 201.633,196.000 202.216 M197.833 222.222 C 197.467 222.324,195.757 222.993,194.033 223.709 C 188.851 225.860,183.419 226.155,172.953 224.856 C 165.783 223.965,162.071 223.857,159.667 224.467 C 157.369 225.051,151.667 227.597,151.667 228.040 C 151.667 228.711,155.781 235.025,156.120 234.874 C 163.656 231.514,168.980 230.794,177.463 231.985 C 184.849 233.022,187.916 232.866,192.801 231.205 C 199.415 228.956,203.028 228.871,208.004 230.846 C 215.556 233.843,222.042 234.395,229.500 232.674 C 234.999 231.405,240.218 231.390,244.432 232.632 L 246.697 233.299 247.792 231.566 C 251.592 225.554,251.619 225.225,248.336 224.778 C 243.849 224.168,239.763 224.478,234.333 225.839 C 225.587 228.032,221.282 227.743,209.321 224.158 C 203.394 222.381,199.568 221.736,197.833 222.222 M198.167 241.191 C 192.231 243.045,184.996 243.548,177.168 242.651 C 173.329 242.211,170.588 242.621,166.400 244.261 C 162.172 245.916,162.160 245.944,164.257 249.552 C 166.199 252.893,165.999 252.822,169.667 251.492 L 172.167 250.585 179.167 250.807 L 186.167 251.030 192.167 249.144 C 201.357 246.256,202.989 246.299,213.583 249.701 C 219.317 251.542,220.852 251.680,226.145 250.828 C 227.987 250.532,230.841 250.360,233.053 250.412 L 236.822 250.500 238.409 247.833 C 240.338 244.595,240.360 244.688,237.395 243.704 L 234.995 242.907 231.248 243.790 C 225.402 245.166,222.039 245.051,217.054 243.304 C 209.973 240.822,209.090 240.618,204.833 240.484 C 201.287 240.372,200.531 240.452,198.167 241.191 M197.156 258.809 C 196.234 259.069,194.284 259.758,192.823 260.339 L 190.167 261.395 184.776 261.158 L 179.385 260.921 176.942 262.145 C 175.599 262.819,174.173 263.624,173.774 263.935 L 173.048 264.500 174.455 266.903 C 175.228 268.224,175.953 269.397,176.065 269.509 C 176.177 269.622,177.263 269.406,178.479 269.031 C 179.988 268.565,182.402 268.242,186.094 268.014 C 189.693 267.791,192.213 267.459,193.635 267.021 C 199.043 265.355,202.170 265.370,207.333 267.087 C 210.850 268.257,215.990 268.484,223.621 267.807 L 227.075 267.500 228.882 264.372 C 229.876 262.652,230.609 261.164,230.511 261.066 C 229.978 260.533,226.327 260.659,222.769 261.332 C 217.855 262.262,216.624 262.146,210.165 260.148 C 204.428 258.373,200.231 257.941,197.156 258.809 M198.667 277.185 C 197.658 277.439,194.583 277.863,191.833 278.126 C 187.096 278.580,183.344 279.506,182.822 280.351 C 182.652 280.627,186.538 287.667,186.860 287.667 C 186.933 287.667,189.656 286.767,192.913 285.667 C 199.950 283.291,202.303 283.138,211.333 284.475 C 217.300 285.358,216.628 285.619,218.955 281.508 C 221.123 277.679,221.307 277.812,213.992 277.927 C 208.881 278.007,207.642 277.923,205.373 277.343 C 202.333 276.567,201.224 276.541,198.667 277.185 M196.667 295.939 C 195.658 296.276,194.351 296.804,193.762 297.112 L 192.692 297.671 194.881 301.419 C 200.734 311.440,201.140 312.048,201.580 311.446 C 202.450 310.258,209.333 298.082,209.333 297.731 C 209.333 296.244,199.791 294.894,196.667 295.939 " stroke="none" fill="#faf9f9" fill-rule="evenodd"></path></g></svg>